<mxfile host="app.diagrams.net" modified="2023-12-03T23:09:33.471Z" agent="Mozilla/5.0 (Windows NT 10.0; Win64; x64) AppleWebKit/537.36 (KHTML, like Gecko) Chrome/119.0.0.0 Safari/537.36" etag="UpRg2vpMnkTz3TDZhDhb" version="22.1.5" type="gitlab">
  <diagram name="Page-1" id="hX6Mefe8U2fbTadaNFUc">
    <mxGraphModel dx="2333" dy="1187" grid="1" gridSize="10" guides="1" tooltips="1" connect="1" arrows="1" fold="1" page="1" pageScale="1" pageWidth="827" pageHeight="1169" math="0" shadow="0">
      <root>
        <mxCell id="0" />
        <mxCell id="1" parent="0" />
        <mxCell id="nitiR1oISIptdSDXtx7r-2" value="&lt;font color=&quot;#030303&quot;&gt;CarValuify&lt;/font&gt;" style="text;html=1;strokeColor=none;fillColor=none;align=center;verticalAlign=middle;whiteSpace=wrap;rounded=0;fontFamily=Poppins;fontSource=https%3A%2F%2Ffonts.googleapis.com%2Fcss%3Ffamily%3DPoppins;fontSize=30;fontStyle=1;fontColor=#FFFFFF;" vertex="1" parent="1">
          <mxGeometry x="60" y="22.5" width="160" height="35" as="geometry" />
        </mxCell>
        <mxCell id="nitiR1oISIptdSDXtx7r-3" value="Home" style="text;html=1;strokeColor=none;fillColor=none;align=center;verticalAlign=middle;whiteSpace=wrap;rounded=0;fontFamily=Poppins;fontSource=https%3A%2F%2Ffonts.googleapis.com%2Fcss%3Ffamily%3DPoppins;fontSize=23;fontStyle=0;fontColor=#030303;" vertex="1" parent="1">
          <mxGeometry x="1110" y="20" width="160" height="35" as="geometry" />
        </mxCell>
        <mxCell id="nitiR1oISIptdSDXtx7r-4" value="Profile" style="text;html=1;strokeColor=none;fillColor=none;align=center;verticalAlign=middle;whiteSpace=wrap;rounded=0;fontFamily=Poppins;fontSource=https%3A%2F%2Ffonts.googleapis.com%2Fcss%3Ffamily%3DPoppins;fontSize=23;fontStyle=0;fontColor=#030303;" vertex="1" parent="1">
          <mxGeometry x="1280" y="22.5" width="160" height="35" as="geometry" />
        </mxCell>
        <mxCell id="nitiR1oISIptdSDXtx7r-7" value="&lt;h4 style=&quot;border-color: var(--border-color); font-size: 40px;&quot;&gt;&lt;font style=&quot;font-size: 40px;&quot; face=&quot;Poppins&quot;&gt;WELCOME BACK, STUDENT.&lt;/font&gt;&lt;/h4&gt;&lt;div style=&quot;&quot;&gt;&lt;font style=&quot;font-size: 20px;&quot; face=&quot;Poppins&quot;&gt;Check out your latest car valuation histories below.&lt;/font&gt;&lt;/div&gt;" style="text;html=1;strokeColor=none;fillColor=none;align=center;verticalAlign=middle;whiteSpace=wrap;rounded=0;" vertex="1" parent="1">
          <mxGeometry x="370" y="160" width="900" height="100" as="geometry" />
        </mxCell>
        <mxCell id="nitiR1oISIptdSDXtx7r-14" value="Logout" style="text;html=1;strokeColor=none;fillColor=none;align=center;verticalAlign=middle;whiteSpace=wrap;rounded=0;fontFamily=Poppins;fontSource=https%3A%2F%2Ffonts.googleapis.com%2Fcss%3Ffamily%3DPoppins;fontSize=23;fontStyle=0;fontColor=#030303;" vertex="1" parent="1">
          <mxGeometry x="1440" y="20" width="160" height="35" as="geometry" />
        </mxCell>
        <mxCell id="nitiR1oISIptdSDXtx7r-15" style="edgeStyle=orthogonalEdgeStyle;rounded=0;orthogonalLoop=1;jettySize=auto;html=1;exitX=0.5;exitY=1;exitDx=0;exitDy=0;" edge="1" parent="1" source="nitiR1oISIptdSDXtx7r-4" target="nitiR1oISIptdSDXtx7r-4">
          <mxGeometry relative="1" as="geometry" />
        </mxCell>
        <mxCell id="nitiR1oISIptdSDXtx7r-29" style="edgeStyle=orthogonalEdgeStyle;rounded=0;orthogonalLoop=1;jettySize=auto;html=1;exitX=0.5;exitY=1;exitDx=0;exitDy=0;" edge="1" parent="1">
          <mxGeometry relative="1" as="geometry">
            <mxPoint x="872.86" y="1800" as="sourcePoint" />
            <mxPoint x="872.86" y="1800" as="targetPoint" />
          </mxGeometry>
        </mxCell>
        <mxCell id="nitiR1oISIptdSDXtx7r-34" value="Â© 2023 CARVALUIFY. ALL RIGHTS RESERVED." style="text;html=1;strokeColor=none;fillColor=none;align=center;verticalAlign=middle;whiteSpace=wrap;rounded=0;fontFamily=Poppins;fontSource=https%3A%2F%2Ffonts.googleapis.com%2Fcss%3Ffamily%3DPoppins;fontSize=19;fontStyle=0" vertex="1" parent="1">
          <mxGeometry x="600" y="900" width="450" height="30" as="geometry" />
        </mxCell>
        <mxCell id="nitiR1oISIptdSDXtx7r-36" value="" style="shape=image;verticalLabelPosition=bottom;labelBackgroundColor=default;verticalAlign=top;aspect=fixed;imageAspect=0;image=data:image/png,iVBORw0KGgoAAAANSUhEUgAABXAAAAEbCAYAAABz86wkAAAAAXNSR0IArs4c6QAAAARnQU1BAACxjwv8YQUAAAAJcEhZcwAAEnQAABJ0Ad5mH3gAAJlrSURBVHhe7f0NXFRl3j/wf9zcQEuCXWkhtRyk7sC8E7L1oV+mtPSA2oOU+2/82SvDvbPFcot0y4eexGoN23SxtRZ1//qH7rUdd32ASn9g6QZ6W4P3msxu6WCBwYq7ELYBaZ3/dZ1zBs4MAxyGQQ7wefe6kjlzZubM9fg915yHAQAUkYiIiIiIiIiIiIjIYponcN2ffyH/ISIiIiIiIiIiIqIeFnP5Zeq/XhO4thHR8k+ifqu8oortoBsxf3sey8Ab88M6WBbmMa96H5YZ9Res6/0Hy9q6WDbUk1j/gkvmp2cC93vq/4mIiIiIiIiIiIjIcjiBS0RERERERERERGRRnMAlIiIiIiIiIiIisihO4BIRERERERERERFZFCdwiYiIiIiIiIiIiCyKE7hEREREREREREREFsUJXCIiIiIiIiIiIiKL4gQuERERERERERERkUVxApeIiIiIiIiIiIjIojiBS0RERERERERERGRRnMAlIiIiIiIiIiIisihO4BIRERERERERERFZFCdwiYiIiIiIiIiIiCyKE7hEREREREREREREFsUJXCIiIiIiIiIiIiKL4gQuEREREREREVFnfHsGx/btwta8PGzd40LNt/ryDjR9dhA7tuZhi2MPnNVN+lIiovZxApeIiIiIiIiIyLQmHNu5CrPnLcaTz76MdyqbEKI/07F6fLQxE888tRD3LP49Smr0xURE7eAELhERERERERGRSTUH1uOxxQ7IudfEh9bgV/axCLtAe64jIVckIyNrGW6NFA8OrMHDLzpw7GvtOSKitnAC14R690Hs2PQ6XnhxE96z2ikO9W68m/Mynlklts1t4dMvvj2Do7texzMr1mDLB5XgiSJ0vjWdPIgtqzPxwuu7cLReLjiNox8dRMmBwzhWwxpJRNTd6j87LPrcg3B+XIl6k6eZEqm6Jd5tQs1HDqxekYnVjsOmT32mvsrK9YF11b8ezJev3Xjn97/HUfn32IVY8uBkRPoeflt/GOtmxmPs47v8blvYNalY8tR0hIm/63dtwtbS09oTRNQtmmrccIo4tOQjF2p66Q8mA0RS5B/uz7+AbUS0/DMwTafh3Pc+jtY0ISQyAVOT4hBp+AWq5uM92FtWA1w4HIlJkxEre6peoOaDNXhw7uta5xwyGS9tX4NZMd69s5wYeveDSjTqj6VLokZh1FWjEBs1RF/SPeo/WoN77nsdx8TfoxfmIXe+iV/+5LV63t8NZzUQGjMet04Y3onTPTqmlvVfRVlHxIt6MFYbzKr34clZ87FVfCYmL8PutXbEDlZXt5TyiqqutQM5UV0k8lZ8/Uv/4yZMuW5oS97KCUPRRtTn4sVzYw3PnTdNqPjAgR0fio2InoBZd45H2GlZf4/jy3P6KgNDcOnQ4YgcPgwjhot/g1hOXc5fGagd3qf1JYNHYeIt4zHC7/aJ73lgD0rc9Xo9jMOpvPmY8eJB8dxwzMnJw5JRB/DLOxdjR/1QzFq3DS8lD9Ve2scFpY7r/cclwxMw5YYY/32OHBOKxJhQK9bT+xmofaV3XQsZHKbWt1H/EYMRET4tokn0VR8fQMmHZThWIYLaiOGI/c/x4jPHtlHundf1OumtqdqFkgMH8JHLjZqmMEReEYNJN9yCiVd171jQSr0LW9dswt7TTbjkqlSkz5uMEee/w+mUYJeFl+b62NbEj+j3eqxf7rxg9qWtcySkuc0GNS9E3+Fc/wDuWeMCJizCzvVzMdqrHbf02/5LSfQXUfG47aY400c4WUlQ6netC+8WleFUUxv1eGAYYm9IxsRhvaEWd05A8W5HmiqxY/EM/OJtkZ9h0/Hq9hW4o9vzrm/XcykY/dOxXWuRvacSTZ54wSNkOG5f8Cju8NkXC4oeqQ8eok/+5DCchw/jIxnjRgzDNf8nGbeOFf2wrAc9um1tC0a/pu1HdyI2NOrBfKk//DoenLUGTgzBrFcceG6695gpDwB77/19+MO6TSgZmoqMBydjytTJGO07y1t7GOsesmP1YSAydQ3++GxyUOK1bo2prKrejfeKSlHxtd67irp0yZBIRI4YjuHDxH5te3WpI19XomT3QRz7JgQjxop48XzH9b1Ml+tf8/6mZ6TU+wW1LIdjROQQrW/spJp9mbhnXh4qQpLx0vZVreb12uN3jus8kfkZc/ll+iNtAldxf/6F0jWNyqd/eFS5+so4xXblfUp2ab2+XPiyTPndHLk8Tvnx0t3KqUZ9udU1VijbF/1Y3W7b3SuUP/zluN9tP/X+CmWy+r1bp2vTXlX2VnbfF26sfF95+g75WTOVle/X6Es7IL7XH34+Vt2+Hz/zvnLqnL48KBqVjzfep33/O15VPvpSX/zv48r2J29Ul9vXlypfBvUzg6fL7UB8z80PaGU//VWf7ynbwf9Hf07mgb74vDpXr3yUPVMrnzkblY//3X79tV35Y2Xu+gNBa7Ndzl/j9l+ZrDxd2EadPyXaxU/073D3erUeflmyXkmVj3+yTHnnRKNoOzuVhdfJdW5UfrnbZNvpA4JSx9P0vL3uUWW7yEt/vvxwvTJdLac4ZfLzWj/Tbl279iFl85GWcePL47uVlXf7WU+mGx9VfvdhcMqs62OfrrFG+Wjjo8qP/W2vSKkv7FY+Fe3tfPmyZJWS7Pn8ax5S/nDc+gNv0MrCny9Lley26pOeUnuqXw5AcPvS1snTZoPKz/jj5VyNsvf55Fbb4pUeyj2v7SiYglG/G/+eq9j95UtzSlZW/qVvjmcBxbsdqlc+3vyQuu9y7aPnqW718XoudW//NNN7HzOoeqA+SKJOFK9/QN+H9k7TRezwubodPbRtHQhGv9aZ2LC1niozUUdf1euo3N/9l75cd0rsc9iv8fkuMt24SNneKh5rVD79oz6Hcp14vo24urO6NaayqJZ9O/9p8mO5yken9JU7q+p95ZeT5PuMVRb+qUKUGrWny/XPuL/pL92xQtle1vmxoLm/uebRTu4btTHHdZ7I/PTM28p562dFwsLHMhBxSVd+SRiIH1z2AzQd2I5Dp6pxbMAY3HbDKFwyEKjYtxZPvuHC1xiPX6z4GW68zDBdXV+Jo6UHceDISfxLuQiXhg/GQH8XdqithPPQQfz1+Blg0EW46PvfoMrtRuWpM2gKicAlIU2o+exznKiqRv23objouxr8vfQwKgdGIfpisRFtqD/pgvPgQZR99jVwcQR+cJG+7rfi/f7+Ed5xbIfzFBA56U78dNJw/CAsQny2torH15/tw9YdR1CP4bgj/VHYbxuP2LBaHP3ktHjuI+z9chSmTb5KzQuPpmo3Dv3Phyg9dhrnQi/BpWH+p/C17TuM4zXf4IKwMIQ2VeOE+ySqapsQenEYLhr8A8SOvQGTp92OKWOuEPmgv1Bu/4mPcejAEZz4p3jtDyJxibrdYrn7Y+x/W5RTlSi1qDhMGhmKpoYBuOjCb1FVrufpwMEY8OXncDo/E18+Sn+t0EE5hNZ+ikPv7cI7f60FQkYi8dpokUFiWyNEOVx5PaZOmY6fTPgPjGjeUEHP60MfHhbb+q34nmJbjdnRdAYVns8Q2xX61ef468EP8fd/iW0WZXaR/6wLSF39V11rB2dr8deCPLxXAVz641Sk/jgKIZ76LI8A27UV+0W+XzpJPDdOPCeXt1lW3tqtMz555LfsJEWU14d/xtaDp4HhN8A+PQEXfdG6/l53VTTCGtw4fvprnCgRbeDCcZh63XBc1MWLrnQ5f43bL7b4700xuG1qPH7glV9NOPbOWixzuKGerXTpBMy6axxGirwY/X9uwPSUm5Boi8TArz/B//vvPeI9BmP0tJ/iJ6MMh4IFrV/S15M6s67Zzw9AUOr426KOi+qFJjdORd+C2xIjvY46wLen8d7vlmHTEe3clEuunY5ZN14hB4M2+8pvz34G57+vwrQpVyH05B6seHAhthxXX44RE8Tr75yK0UNq8ffyWnz7lRv7d5XhovE3I9E4ngSgy/khySML/7+P455f7RPjnDA4Drfem4q7xkejqeITVImFVYffwXv/ukL0f2IsMNZXE/VCtv0TFdX41xnR54WIfvroYZTVhmJEW4fHi/wvyX0Zmw7La4XIx5/hXOwM3DYmQozUfvSVutmugRj4gxiMnnADpk4cBfxVjDfygJ3Jc5ExV4xLU5IxOeE/ERslvo/+inbH3+++QcXnn6HqtMgjDMYlntjh69M4Vi6W633xJYP85niXBbUvjZyMeQvn4M6fTBZjtEzJmDpuDEb/SNaDz1D5zzMYMMgY+4gxyxBv/eBiQwWRY9HHh3HgQxcqZX39oXidJwv8jD+XGtvC9y7ABSGRuPra8bhxyniMqCvGX+VZO8OSkb7Ajuk/ScZt18di6Pe+xKlTp1H/jfhsn9ipXrSVY6Kt1MvPxr9w4oQnXhLrnRaxg/ND/PUzUc9FLPcDv2WjxUiHDogYQzTcEBG7eNX/LghG/R74vYG4eNQY/PjGGzBpdAj+dsit9jmJ9kWYn5qEqaIMr/vPOFz6tSif9voMPe76iyinmqYQXCK+ZJPIHzXvvhavke1atPVjnvo+SDz/xccoOST6s28uwCWiPYT4yT61zYhYrqxc5LExpjYZxzXVVIqmKfqiE+L1IRd51a2BIZ2Ndw1E/HXs4w9FnPkJar4R3/eHYvvVfkv8/aN43HjDZNyZNAGxIn+8+jO9bzxUdhL/vkBsT0RL/6DWFeN+x/fO4O8ffYBSt9j2wYbv7quP13OpW/unn0xA4uirEP39hs7vG8h68L+iHhz9DPUDRHkOvgC1n4syrK4VZThY1DfRZ/vWh6863w7a7Qf9qP/rFjz5uAOV4u/Y5LmYe7eIjQb9A38tr0fN4b2oipmO5Ksj8QOvbRPbXqHVv5rTp73TGbGtcts8dbmT29MZwejX2tuPbokNr8A3Jw3trXk//wpcPeo/22zD8qyoQyUHRbusxr9lmXu1YY8A2oOIQ/PXr1P36WLvWoD5U4e35Hf1Pqx6ZDny/yn+HhaDyDO1WmwoffUJir/ynRcYiItCv8b/vrUXJ77+F8Im3O29TxKg7o2prOnbM559O2D0rIVYcG+yGCtHIXpQPY5+Jtr5J/uw/UQEpk4eg0uNZdxR3yD6m2NHP8A7fy7GibPf4gfxNyB2yLf4t9pveAqye/vV3qbL9c+wvxlynR2/fOhO/OTHcSKOGYjav51E/ekjeOe9athumoz/iDC26vbLobm/GTgKP7kvGaMNr21vrqWpuo05rosN40A37yOt+fVq/ZEYJmUKzq80jcrnO5cp16oz4w8ov5O/mMmjDvUjEr2O6DhXr3z8x2XNR2h50rUPvKq8c9wwmy6Paspd1nIkkZ5+fPc0/ZfKG7Wj8Iyz9D9O1rdhmrKyxP/MfGNVqbL5yWnN76elsYr9VzuVT+WMut+jdaYpWR+2fj//M/mNyqe5D2mvk7+meY7C/fK4sv1X97X6lXX6839UPjb+evevMmX78/osf3P6sTL9Dv2I4Gu1I9/8HUX4ZdlO5Wnfbb91mfIHWR6GI0S90pyNivPTll+trp6iHS1rm7RMeadKvKmZcthT3vJrpDHJbXW5mssnOetA85GpXx4R23qvdjRwS5qpPP2HlqNXjb+mXf2TZJ+8S1Z++YeyoB3RG5RfizpxBG67ZeVhos545ZFv2Rn5OQKqzV+i5Lq/037VVo948FP3O6vL+dvqqAw/2yXb7r2e50XSj8D1/Z5+j8ANdr/U2XXNfn4XBP0X0Z+sUPb6/Jrd+Pc/KnMNRx60OgK3vb7SfVx5Rz9aXx6p8AefX1e/LPujsvBG/b3vflUpDvSXdF0wxr4vSzdqR3eLlPrq+8rnxh90GyuUva96+vIfKwv/eFz71d5svfCq8zcqk/V8Tf1dmfY+/lS9rzw9peU91eTviMe+VjfNEn2xp49IXS/GD31xszbHX71eyjHtf/9Hydb7czVv5ZuoZaW/TrSLd7rx7Jug9qX+6obQcrSnT+xj6AOSf+UZzxuVUyUblYWeMx886cZHlez39SNVTHxmM7Fu8Qt6jPbQH5VPPVlpPDPqDtH+jXGTYYyd/Mz7imuv3t+I2G763b5HPE5TFm4u9Tq7pPHE+0r2Q3oZt7NeoIJdvxuPi372armN8qhbQ/kY89lPn9F4fLeS9YCeh5507TRluqdffUA7iq25vxZp8q0+60/yOQvilL+YWsRyO0V/J+pHR3Hcwo07lT/8qvURiMlPijhHb6CdjndVYr9k96uK/VrvdX78841i7BC50Vad/Lfot9e3PqPixw+tV/Z6jo4zjoXXTWvOK0+a/rzYn2ivjkt9sJ5L56V/6tS+gagHf9mozPfUcU/6yczmclNj9qbWn9updmCmH2xFHtX1gLberataYppTB5SVt2qvv3bRbuWU77bV+MRixvQT8T5qnQlkezonGP2aqdjw05b9SK/9/A++8F9X5L7TC372nZ5p6VOkQNtDS/37sfLLggp9qebLD1/V46r7RD6/r2SJPupq0ef84Xm9rYv4oFXs6hWXBOdsoPMWU1mI3307lWgL77/aHKvP3eyJodvuGzyxsewbTh1v6W+MybOvfz761d6my/XPGGsa5o6kxhO7laeb+8edzftdZsrBb3/T0VyLHJPamuOSMYF4/nzsI3nmbYM0J+wRghGT7VgwQf59EFv++3049zmw5QP51GTM++l4/bq4TTj6h2W45ymHdm1ZDMfoGG2Gvv6D1/HwnBXY+om83oVYz7EMs591qNe8kiKv0Nar+dgtnm1DbSX04478qz2MnMV2PONwa48HD4e8AaT8vJKcxZiduQvHvgnDiOsnY4S6XIgciynTb8KVQy7UF3QsRP76qf8NeV0feZ2eFx/AL3IOa9seGYNY7YNxdMty3LNoE5y14oFcb9VD+MWWw9qTGIIR6npncNR1Rl3SJvHdtjyzGFs+lg+GIPaaGPXC6HA78OTS9SipvRCXjk1GrFwmDY7DlORkzLpuuNe1tppOyiMcPUyWw/cuRNgVEzBxmP4YQ5GYlIxbp8trhLTOt3pXHn75gNjWw9o7hER5rj3owpZldvxiswu+Nzlp+kzeAG0oYq/yXK+0ElufWYPtan3pZToqqxrxt9k6Y+Bddl1wwRAkyl8vx8oHLmzfXWbBmya4sHnnARjvQVbz4S5s9TSdTumOfqmT65r6fIv5zIE/7DN8F3nNIvmLaSc2tbmvPNeEsycP4Q+7ZB0OwR2PP4o747Q88AiLS8Wvtu7C7u0O7HxpBmIv0p/oKfL77nbAKf++5iEsud/nWrMhwzFl/ut4f5fY3u2/x4JxsgF3pl4YnUaFiXytObIH75yUf43FnIema+Obes1F4/jRD+pmINodfw196yX/iVkLH8Jo+feBl7F6uws1rp3IXi9fNxSzHn8AU/rgdUjbUv/R7/Hw/S9jhzwyX8aCcTFam67eg9Xz5uOFt4N081LRniZOn6HFZq587D3SUib1n+7G9o/kX3G447YE/LA5whX192N5bJvoP67wxA5u7FgxF7/cqsUZTdX7sDp9PlYXae8XFhOnx39yPTseXn+wl940yLvPUL/nowux7gO9L5Dxr4z9vnbjqDwKtA0Vsu8Ii8HoKH1BzR688CvR78n4Q55xsX5xc0wdGRen3+NAxHKPL8MWn7jVXxy348XFeDLnoFpHIq/SYyHhmGM5Vu9qo080EUM1uRx45tHXUSIPfxN1Z3Sc9pk1e17GL9bs89+fNonvs2YhHly9R72zvNoHRKh/oKZoDR586GW8d9LnhfVuVIh/ZL33bPvRLSuQXRRgvWc975SO9g1k//TY3JfxrqeOR+nXKv3MpZabWe22AyHQflDGQCr3Hmzfc1iLaSPHY8k7ZXB/UobDq5K97iujuuBCjEhIxa1iH05Nk8c21z35ofJzz1u/3E2MsaG6H+3R0X6+Z99pk77vFBUnYhb1nXA0bzkefHGX2va71B7qa1CpbsQoxI7Ud8x0ISFhelm4UPxBKSrkAXshkZi6ZJdanu49yzDR+yXARZGIHaXV34qqejT1yvHGykIQecNsZMyNUR+9t3Mfjonya69v8MTGUsjgSFw5OU57TpL3Cbh9OiZeIUq6pq/GD9YVcoU8MyNVbWf1O3ehRIzJAbdnM3Mt9e3NcYn1zvM+UpAncIWwONz5gF3NsIqti3HP43nq4Bhrt+O2UXq1rz6ILev3qJk0eu4avH94N3a+cxCuPesxL04srNmFHHknyZMHsfV3+7TMvGYufrvrIA7uOYjD21dgltb+/AsZi3mZ65G7bS1+Fu+98y9KCcfeXo/VB+TfcZi3xoHDB3fjoNiG3KfEACmW1vx5Fbb8NQx3LFyIOTfI9cR2zlyIV19ehDuuam66rTXVoOK4SwRQh/GeYz1eWLVL2/axYxEvSre+1IHfOWSlEjt34rnD+3Zht+jY39+0EBPFwNy0bz22HhCDUvN6IhhMXYGdBw/i/X2l2L1mrraz2I6m2uP4yCX/GoI7XnFg57Zd2LdtERLlItf7KK6+BLfOX4R5ydr3iLxrIX61dg1eWpiM4cY51jg7nlu3CX/c9BAmfmu2HC5E7F2PYsn96oyfeI9ULFm1Br/NnIuJP9IWNRONpWTzerwrB7+YVLy0dZ/ID5ny8JL+pu+tWY/3Kr0rfNjtIj8+3Ifdu8S625bhVrmT8O0+vHOgvUkPa+qwrD4/Y7rOeDGWnW+A0FkXDUfiOK08jn1yHF9aMJNrHA7s/UzfMLETulc87kxA3qw7+iXxnp1Z19TnWy4IaMK7f9iDo3o03VR9AFsdasVuW5MIanc6sCUvD1ty1uIZva8MmTAeI858iqPqg/GY9J/apRmaTh7Gjq0ObNXTdtEfOo+U4ehh8a88TbQniX7/mEubuIidMMH/DTpDhmDEVWIHQk5sXDEEIZ2pF16GYMrCVdj4pgMv3anviPkSfau8WZc68ZA0HbPumQ6xqnAY73xwvGWnp1/Uzc7rzPgbef1sLHlIZoAYr1akYvzMTPWHi8jUxUhP8r6ZiaUd2IRnHl+Ih9NFWrgYL/y5k+OpqHPviPFc/RHjuoXI3XcA72/fBdfBXXh11nCx0I0tm/LVnaVgiBwzHXdcI/+qxPaiUq3efXsaR3eLfkguvmE6bvtPn9hPxhnbRf3eI2KHd9ZgnhqmNOG93+XBWSPjwk3I+UQsGjwZz20V673jwPtH9uGPy5PVHQRnzqaWcaZXMfYZw1Dh+Z4iprj1qTwclPHvR7uxceH4duvrxMVy3V3YKdvCK6naj0KHd2Lv30X/++8aHC3T4pARc9dj1zYHdu/dhHS1aRzG3kPek0Recdx2PY5Tn5A3FBH90C4R63zowHN6nPrezvf91h1TMVSliMll/bhAlKtjJ3Zu34PdLyar37VGxJzHfX4Al+pdDmRvkm8cgokL1+P9D0UfUHwQu9eLuEu+0J2H1X/0OcBgWCp++46IzUS9P/xBHjLUA1nO4N23D+JUgNWG9Vxn7J9EkhP9vmNNu/sGxv5JxBUZObvh2rtbLaclt3smfM1ptx0E3A+GYMS4ZNyh/khQia3P2jF+XCoeXvE6thaJcbX53Hsf8sfh9BX47Tqxn7VuFZakjtLbsGgPc1MxevD57ZeDop3YMH6oYSfVuJ8fd7G+sIUcx7PVcXwIbn1W7OfvFf3DOwda2r5jE7aWnu5Se2j6ul6Lp0Ii4XsVxJDLJ+A2df6gCSWbXseOk2Kbyg5i+25Rnm02rxCERWgBZH19PRp9b95HXXfBUMSOS9Darfs4jv/Dbb5viByP9MULcaf64hDcMX8FXl0j2t1dhnG1z8UPVhaCS/9jLBJl2/vWjaOV/wy4PZuba6lpe45LHrR6nveRgj+BK0ROsDdPEKoGJxuOvhXf4/hBlKi/dIjOSgxW7/1Z3zEXO5dNeiB37K9l+Lvo7N7TjyLKeHo+btXv9iePwFry7NyWo0h9RE6fi5+lTsbEa2IQqfWFLZpOwvnBPvXPyNT5+FlSnNbxDh6OiT8Vj9Wg6zTeOxjI0YaHsS7djhkz7Xjwqde1X3OGTcdLv5iB2MFncOx/D+oz85EIOX0A2x3ye+/Ce5/Uy0t9CWfgPPIp/rdUXy9mLl56XAzCclC/IASxtz+KlxbrFacNIUPkrL/86wx2PLUYz7yeh/f+lYBffyh/xd2FjOt8J7T9mzLbjlnJ45F41XA0nQisHNpV68LefdpO8q0PzsWd+p2/Q6LG4k7x+Fb54OsDKDqiHf+gEcH0VHldJO1R2JWTMfUGrZ5VflbT6mhdq+u4rEQ7MFVnTnp9d2PZdfkOxuL1IZfoGf6lyGMrBRQxIuCVzaFpH7a8re1M1bv2YMse0YVeMBZ3JLc7E9ZKd/RL8j07s66Zzz/1b+1vK4icPB0TZfU47MD2D2V7bkLF+2Kb5fe4SpSPuvPpTyV2rMvEM8+KtGoT3lP7ylT8SvR30d/qd+YOCUOoPozUn9iD1cuW40k/afOH/u6ifx6dE0H8l9qfISYvyN2ZeuEl5h78zD4dU66LQ2wbtz5tOn0Yb+/R+1Z5PbjhCZiapLUF57vv45g+YdHX62ZgDOO0mfFX7AxMnL0Q867SH0uR07H0Z8G5g/T5cxrOoj14d49Ib+9CyWedO/qn6bTY6T6gtcLIHzTiWNEurX68fQAV32r1Cq5SHP1nkFpqRBxuSxmv/lkjtlneobippgzb35Y/pIgdqzuT9SNAPWIw79nFmKUfzR8mxo4FT+sTfdUHUVz2sYgLD6rPISoM9Ud2atu/fTeO/gu4RC5vKoNTXiO6tzH2GReJcta/Z2Tqciyx63dQFvHvlHnLmydMWxsvYq04PYYXbWGciL3UndiTqKj+Ek0h8sgxOSEEVGxahF+8sEns7AC3vXZQPdosd67hqCXxl1ccF9MSx4XckIyJ+lEr4glMSZqs/X3ypN9JDzPxbkh0jNaXfbsPzzy+HKu37EHlyIU4eESss28FpniOpGwmxrAP39d26K+yY4F9MkbIbb1gCGJvEo8f0PrSo+8fxDHDxFrkTclIvEL/lpFxmDJZ6yuaKivbmbDpAOu5ztA/ibRd7Bd4T261v29w+h8t/dOU5csxb/Jw9c7lIZFjMe+p5Zil1mUz2m8H9Wb7wdOtK0TIFdPx/JZVYtv0SaMmF97dsgZPzrdjcvrrrc6089X02R6se9Gh/nAbeddyLLhd1NMubE/PaTs2NNb1dvfz9XFcPXoyzo6f3S728z1lNj0Tu9WzoV7GrMta+sOA2sMFoeIdBXl0sK+wOMxZlYfnRB/b3Pe5HXhhoSjPn63Be21N5n37jfpPyMAQhBov6UnBM1jsW8h/62vwz3/8ret9w9dyXqmPxg9WJ490V/uFGnx5+jP8T0DlYHZ+znuuxagn9pG6ZQIXg2Nw55wHmo9WGT3Hjts8gY0Ijhpra3BK/7tk08uio9Z2xJ959mVsUU8LEmr/gTP/0tcLG44Rkd6n4IdcGoPhaofc2iVDDZcu8NVUjxp9TvDS4aKgjCuKIHRElLbgVHVgv37FjhUDhf53yA0LkfvmCsy6RgyU3zah/pS2Uy1GTGxZJQYnfQLimRfFIKX/Avrll//Cv2r09YYPQ6TX6cGiYgwb1fz+fkWOx89+vQpz5MRJ02FsXZ2JX8yz4yYRaPwir/UlCfwbiksjPHloKK9OlkN7mr4W7ykalDzMfIRoaF7FEDEcl6oxzBnU1H5jmJwZgksu0gdMaWCoeKxtT2OTlQKQjqnfoaOy+sZknamvhzbkS8ayCwJjvb0kEmFWCigi4nGXXTva/6jobEs+q0TJTu30hRFi+V3x7bYUH990Q79keM/OrNvu55+21GlVl4xKxv1z5I5qJbY63sexk4ex/Y/yB7IhuOP+VFwX3XZNjJ2gn/Z3+3TMWbgKf3xzmXqGwyVDI3GpXKH+uNgp0mp22MjJyMhchuee1dKSeZP1fjAEkRHe+XreiQAiMlr7s0LUwS87HDe60KdGDO3gR5kmnDokdnLVviEOI4bU49gnlUC0Pm58vE87UqhT29A762ZAjP2d2fE3ajzmzJve3OfGzkzFlOZ4p5eQNwl6ytO+VmDB/9F2YkwT43mN54eBPa83148nxU74as/R+CL2qg/aMC12xJOmY4rM5po9+PMBNyoO7MI7MoC+IhV3TfA5+vmC4Yi91KeOizhjuHrEm6jb//wn6tV4RHDvwuoVmdr2LxNj7ro9+hkdp8VY2yhaQC9j7DPkj03695Txr9fNVQaK+FfUeb/kTpJx3eadpiatzYcMxa0Za/BSqpzEPYOSLS/jyYVzMWPqeNzy7C6vic724riwwcZJC7GG2NFW25tol377FhPxbtg1dry0/iHtyNlPdmHdisV48L7pGHvDfKz7yBNfGXz7jdiv15dHiT7A+L0vuFD09dpENU7XeNXnS4aEeNW55lPim0QMG3C/yHquusqOV9+Uk256evwm75sPdbRv0Nw/ifzx2d+QP16MaKPat9JRO/h31/rBsKumY0nOPrgO7sYf1y9rnsxt+mANXsg73Pb+29duvLtulfbDeVQqlqbrE/td3J6e0lZsaNTufr5xHI/0OTo2xHM2VAxGhDd2qT2EDB6i908in+tb9sI85CTgnGfz4Ppgk3YUnqinclOaDryOB5fnNZ+11uzcl6jRJygu0Y/EpWAzxr6ibojy7XLfYBhX+1z8YHXNfZyIZwY34WuT5eDVWr8TY77JuRb/5Wd2XjO4+0jdM4ErhI2Mx2j1l4shGBU/zLDTKQI0EdhoXdMQTJm3qHmn3JheWngbbD/y7MhXoqLGu3NsOuVGZSAZMVB8tt4vnqrxOcpEVIQK/YJYl0ZFdv7Xr5BkzMt8HRsX6r+8f7AbxSc82y12/sL0XzxDRKe+uPV3ljtOS2dcg6gf6b/AVp5EjddsvRiUThpOgW1DWMx0PPfmQby/dT1eyrBjitoBncaOF9dg+/HOdh+ivCK6oRxk4KPuHIs8/5d3p9ZUWwmtLQ1RJ2faHKStSAT4l0RoW3yq1qexi6DiS/2HH3majFyr3bJyi+fN1JnpcRjSmZ3tzqgpw9592qmRsXGjfILmHvZ9sTN1fSrmyKPmqx3IXrMW2XlyW8djzowJ3jteHbqwG/ol8Z6m247Zz0/GCP3XPEu4MAzxt6eqpys2iR2E1WvWIEdejzDOjp/e4LNzaST7ymdXaaf+rVmF59KnI1H/8SxsxFjxt/zLha07D6jXKQsZNh53zLJjjl2mGZgYLbJUrhIyGZPitcss9JiQSIxO0Pr8+g8OoszP0SxN1YexQ/1F14EdH9Xge4H2qfLO6u2NS00nUbJHvyyCyL+chXbMuDMVs1fs0ccNF97dVyZ2BDvTr/fSuhmIC8Q4rf16aH78rRc7z9v1yyUJx7Y52j66xqpGjcedP/W0L9Ger9OvRz8wRP+RWwS4/zZ8p3MiL4x5I/oBT1w1YvpD/uvHi/Mx8UfBa6myT7hLPcVRXsIlDzl5u9SyGX2X6Et8j5r5VtTxUz51XMQZlXrgf+kPf4gw9fAMIS4VGctbb/9zmavw04RLelc8Ihn7DBn//kD781Rljfclkc6JWEzU+YBFxGFW5k4cfCcPv332IcyaoLWjY3mrkBPodWBN6DjeDcGIpIXIFfH4zpxVWDJXvwdE/T6sznLA6dugRSwV4om7arwnaeXkbk2lfskqsY/ge9p0d2A9F34wDKPitEsQNV+GSH/KlMGRYl9C/lGJY9U+cfnXIs+6UO29yP0aM/2gHuu0aELNR3u0I7Z2HcSpwcORmGTHknV5eDVVa0fOD8vauBSHvCzGejz9Z7nTNBSznnoIt3p+QAx4e3pQO7GheYb9bd823HQGFZ+4cNTlRkVdaNfaw0Vh+tG/lfi0Uj8Ny0PEVcdc4nM+caPmmxBcIvqVsOmLsfHF6VosVebC8VqfAm06jYoT2rLIH4ixt7v26/qzphqUFr2v9QFXxiEmMrrrfYMcV/tq/GBpou87uA8l8s+QGIy+PMp0OXj/zHmh6bkW/wfQmJ3XDO4+UrdN4LYnTOwsaKednEF9SDxu03ccZk0Iw9HfZUKeOrHuYD1+eOV4MbDI9Q7jd5t2t/xaVXsYW3PyvC4ubZoYyBMn6Kck5a3H5g/0wFLeiOadTchWZ8qHY8oNo1pfMN6MgUMwOnU+5qhnWbmw7rU/agHiBUMwYtwELXAUnTSumIxZ+s7SlKiT2CJPFxGpqPoixFw7XlvPLbZne8uvrk2f7BL50P7dmeo/eh0zropHzJj7sLUxAbMeWobf/n4V7pA1q6kUR49rv+41T077O/XDR6Qor86Vg95FiWC3rV8bQobGY9J4uZ4IStf/Hu+59e0QHeZ7mzfhXfkw4iYkJZg5f8FCQiIxaow2mVPz5zxsP3Rar1+n4dy1CVvUa8/F4bqrItHUUVmVN5qsM3KF4GuqOYwtq5Zhi7z5QZgIqu4Z28HRfz1gSAxunaUFREff3qUefRs2PRW3yl/rO7mt3dEvdabtmP38difwesAlV9yEn/5UHpVUiXf/rF0Afso9tyAx0CNjoyZg1k+1NlSRtxjPbDmICnkElzyq4rPDePf1ZXhwhXYZHHl2x9QeP9pxCGKT7bhDll2NA79cIfuzM1q7F+rd+5CzbC5+8ZT8RXYXToVcgmGd7lPNafqsFO/s83yyf8fkqbj/6h91s/NEWXZm/BVxg3PrKrwgb9TqUbMLK3+3x9TN5qwuZIg8K0n+Jcbl98uaTwWv/3Qf9nqOKhD9bEhkPKaq4zlwqj4MidO1+jFnegLwwRq1fjyZW9rcJoJCvcnTLdoNKg479BtXjscseVmsVn2/Gzk5IhbTj0aTk+7vbNyknSYfNR6T/uMqjJ6g9Tk43YTI8ana9v/0FsSe2aNu/zPLHKJMA+zTrGLwMCTeoMe/jvXYelCPT8T/K/blIUdefigQNfvwzFQRy8Ql4Bfvh2CKfSFeEnHdc+o1IEXsc+RkUI888eg43j2JY1vmIkauM/11VF41HfOeWoPcHO3MHRwuxbFWl/UQfcB1k7U+wPV7ZIsxrbneH/4jsrfIyxeIsecm0U+cjx+sWM+77MKhcZg0Qeuf3vvdppYf2ERcXvKHTdhqvFJbF3SlHzz1103a0WKPr8AWz37p12fwpT77GBLmf0JPjkurX9Qm9UfYl3tde71H+mUrkPvbCRO0NuPKw2b9Emuynzu2fRluEfsIM+5chK2Vl3SpPchLuFypX8KlzOf06vpPHfj5neJzpt+Hp3eV4ZR4rqmpCTWn67UfgYeEqWccGDVVl6HYc0PGy4fqE0IUNF9XomRLJn65Sx5JNRSzHkxG/MhO9g0y3lHboeGsEHkQRz/sV3uUiL2PFa3HM559wQfmYmrssMDK4Xtm5+fUtQW93RrmuHpiH6lHJnBDhsk7x+kXFF43F9Pvm48H75+Osbctxlb5a8cF4zHnngREDhP/zp+sZlX928tFR2jHg+nzMeM2O17oYCe1bUMw+s75SFfL+DDWzbsFY6fPxYP3TcMMsXOtDoKpj2LeOP0onACEiEBp3nz9V7YDL4udQJc6QEaOuw8Zdm2iY0v6DNwzdz5m3zkZN83fpO0sX/OAetRaZEIqFui/upassmPyvfPxsLwO0vTl2NFBoBEWMxZT1FM13Fh3fyrumS/y9qHF2KGOGPGIHXmJqECXIPJy7byAmq0LMXvuQjy5Zg8qvX+4byFPETVdDiG4dLj4DvLPTzbhQdGoHl62CSX/UJ9sERKD2x5epJ0a5s7Dw7cl4BZRD+658xY8nCcD5BDcunCuaDx6Q+k1QhB7Q7L2vb7ehxfunyzqdSpuGT8Z93iOgpswHVNihpgqK7N1Jii51LQHOc8u1m4UIdvjDXY8s0v+qh+DOSsW4U79Dq6WMjAEI24QnbSaj1IMZqWKwG1w5wfKbumXOtF2TH++nyC+Rw0cisQZ92Gi/lCewvfTpJjAjx4QwXfinOVYkiRzrQnvrZqLm8ZqkwNjk+14WL8zeOTty/DS/PGWyI+QK5KR8axdDQDq5V3KbxuPOFEvZ4h+bext87FaLWt5Mw39+oSd6lPNakLFwT3qTbQQmYrf7i1Vrz/pSYdFX69eC/GzfdodzftD3QxAWCfG3/ojf8TqVfKaW3FI37QbO5/13CBlLXL2dd9Rh+fNDxJw511aQFyxZT6mzxF5kT4X99y3RpsU8hgsxvOfPar2AU37XhY7x6Iuqaeyp+KZPXJnaQjumD1Du55wEKk3eWru+0XZ3SUC7jbGKbld94ixWNbxe6ZPx5Pq2BaCKT+zIzFK9DkzFyJdnopfswtPih382WI8njF5Mmav1q6pJi/Lc5sVx8BOEfHJ7XP1aza7RPybjBki/ntYxB83pQf+wxF+EI9JN+ht5kXR74n3fDDtATyj/rARglFxkd1yNFnHMVQkLk2YrI1N1Q48nCr7OBHvi++qnk55VRxiw1uXaVjCbCxRj8IQ48+LdoxPEvVhbiom3/cySmSjjpuLjNS2jsYJvn5fz31uYvbw4y9jh+egDzNChuO2++fr45+oB8kzxPcW+z4zkzF7XfsHxXRKwP2gaJdyv0DNdjdy5t+C8beJ8XW853UiBr/zptbXVW+qxLs5q/RLJgGNZQ68oOfTL1Y4cPRcz/TLVhA5Xuw7qeP4Gex4NhVjfyK+u+gjblmm3WhoxKy5mHVddNfaw0WjkDhencHFsdLDOGY4KyUsZgJuVdvsGby7OhNbXKIM9mTiF6u1CafYWyZjtH42hKYJpz45rF2Hc/AE9cwy6qrT2J69SOszRAx309hbMHuVdoZa4kOZyJDXu+1s33BRJEaM1P5896kHxbqL8cLOGvVG930/fuhZx7atwi8elf2bGNvk5Znmv67GoSGTF+G5B8W+4IWBj2/m51r8z3E5Lzj/+0jnZQJXvVi0FzFYpWYiVwRGo0U+1hzeh/fknULlM2PtePWttZgnrxsr1hst13t2ujYzXn0Y7+3Zh6O1ohAM15rttMjxWLB2E5ZM165l1fTJQbx3WAY5QzElfQ02LJ+uH+YcaGOTp2zNxQL9/gvvrVmP7TLYEB3FrY+vx28fGi+2vQlHP9iHEpccREVnnroMf3xtPibKWiHWu2Px63hVn5Wq/3gf3pV3IhXbN3psBxPLEWNx/+KFmKLWLnk3cvEZ6nzoWMxbsxxz5I1q5ATJjLm4VR8fjh3Yg60fVXr9euitc+UQKYKDn03W8q7JdRDv7pJHMLSeHZbXJvvVlhWYpQemxz7aB6c82nOw2NZVefjVT89fgBxMIVel4rlXHtJu7iQ0uV3Nd3kNmTAXv31W1Hv5nJmyMltngkTWBfVGEbI9hsTg1nnLsPGdN/Hc7UGaJO4OIh/v/Kne2CbbMSuhgzbSpu7olzzrpppa19znW0/Ylcn46V3ato3+aSq6fEpeWJzoAxx4dZ6s975CMHHeGuSu0NuRJYg+P3kRcjcvwh1aPC8K0IWjnp3MyMlIf+VNQ5/WDWPb1271PaTIqZNbnXYobxZ023Xyr0q8o97RvH/UzU5rZ/xNNI6/X/4VW155WT19a4R9Pu4fNxyj71qIJeqNoEQQuPr3KKnWy7+3krHC3Ey8atcqtSz3d/foN4fxESbrgXqtQvHgpKhL+w5rk2Rh45G+7k08f1eMqEVBJm/ydJd2RKk8c2rW9Alt3DxOlN114jvUutQ67lSPpIjBHcs34VciAFHbpIwLf7MJGcmyjN0oEePxUXXCfihuXbwe/7/FyZ28LI81hURNRsbaNUhXjzpqwrEPtPFe9rmJnr6rsy4QsfPPlmPedVoGyfd8T72+7BBMyViDJbd3Q9lLJmKosLh7kCFjerlKjezjDuKobJZxqXjppQeR6G/yKkR8n4z12LhwsrajJvrykg9c2gEe00U//9qj5/fggn5fz71vYvburgOo8HPN0faEXfcAfr1pEW7VzygoEe9X4hIVIWasOqYFS6D9YIioj8+t99RlMe643doBH6Jc7sh8GQtu8hPXfvsNvvyXtj8gaf2zlkc79onXi326HumXrUCO40/9Hq/O1W8iJr+77OeExDmrsGGx6BPkE11pD2J8HH2DfkkWeSNfdR5BFzEe9z/tqW/eRttX4NfzRd9i3L+V8duftYPIQm6ajIRed/CSNalzELJNiBiuQoxHidMfwkubdyP3FyL/9SzW+oaFrfuGq/z0DYPFfvF9+hkc6pij3/T1B/0jfuhRYhx+T+3ftLEtckIqMl7Jw751c1vG8UDbcyfmWvzPccn1zu8+0gCRFPmH+/MvYBuh34klGL49g4rjclIwBGFRwzBCvy5oK/WVOCqvBSP6vbDho5AYF+P3ulJNtW4cLT0udqIiMSp+lHg/4NRn+vsPi8GIsCbUfHYSp75uUi/aHxtlJqPkKbkuOMsq0XTRcPUaS1539v5WvGelfE9RABHDxHu2/R2OnTyDJnnaxhXDm7e/qaYSFaflqbRiG4eKPDC8d1ON+D5HylDZFIbho+Ix+ir9mnM+6k+6RP4cR/2QUYj/j+HABytwy+O70BQxHb/dtgK3Dv1GvXFOSz7oL5TbLr6besmEH4xSL9ge6Xu6l2e7xZ8hgyPV7TtV6ee9DDouB8+KovzV5eJvNV8i0VTdRvnIuuIqQ9mJGoREi7zw3dbm92q9XfUn3SKQE+8ZJt5zWNcbR3lFVfDawdeic/9A7OyKlt00MASXXjUeU8YMR6sjUcyUldBunWknj3zJOnVMTiwMHireQ2zPv1vqgUpeB1JeHzOyk9cZMyEY+dtULcpcXjtK3nTwCpEHMj+/Po1jlSL0ke1Ub2cyvypOG9bzfE9POxU7BcdcWh0Nu9yn7QetX9JXlGpFfTjiQs05bd1L63fi4emZKBE7ZPM25WGJfgSTyuTnB6LrZeC/r5XX2pPXUr0kynNXYNm/nkSFXM/TPtvoK9ul5oUbldWifCNFPy2PmjKWVRcFtc2rRP7IH23E+FfTFCI2eRRiZZtuY5PN1CG/dd6XsQ/wGW88mvtL3/fpM3XTJLXPFXVYZqnIq7bqk+wrZXyAIaLexcfgUlFKFZ76K8vJM74b2rraDqr15e3FPl3UbX2pX7Iti3r6iYiVIuNEmZsbzxEh4pYxcT5jts/40+ZninX17VPjE7l9+vJm8jTHVQ9g9iaxYz52If6Y8xASDZ9Vsy8T98zLQ0VIMl7anonbBtfgmIinagaKei62K9Zv2YjvKtqv8++iLYl8GRUvduKCtDMd9Potr5n4WY3a5i8VddB4N/YOy1a2gU8Ow3miHmEj4jD6SrF3Uiv6a2N+t9VfyzKWfY3o33zruPxcGbOqeWyMqQOI45rbkvz8UeLzz7XxHmZiKPn5n4p6WdGEsJExat3zHCDQXl5pcddxVH4r4q6r4pF4hTHO9D8WSs3xv3jP2HbbVt+r51Iw+ydRMt5EjHrpcFHGF3S+Tsk2c+zjMhw/JcKJ/4gXeVOJLWl2rP4YSMzIw8aHxiLEtz74xo6ebGqnHXTUD7ZJvK7m+HFRl8W4I1436j/E9/JpXy3bNkQMx1r9a0XerEtuq6feBbo9JgSlXzMVG7bT3tprw9Winos2XCOi/uGjEjA6xt++TYDt4Ws3ti5KxZPy8jOTl2H3Wrv3pVXE93Ie3IPfPfsy3r38Ifz26dmYEte6jdcUiTY8X54ZECNirt97x1xdcN5iKitpHmv0xyK3Q8JEvRD1pb1+WO0bSkXfUKv1DaNFv1F/Uo8TfeaAWvom8d5ez3Vvv9rbdL3+tbR5DzlOXho5VL+BZFvaLwe533XMXS/6mzCMuMo7XjA1P2esY759VjfvI8Vcfpn+SJvAVdyff6GQNTSWbVRSr4xTbFdOU1YWViiN+nLlXI2y9/lksVw8d/d65aMv9eUUNGwH3avf5e+/Digrp8m2HKekZh9QTp3Tl4tW/fmfFinXqu38AWXz35tbebdjHffWb/ODdbNXY16Jmlq5U1k4SavDc3OPt8RKulPvr1Amy3p8zaPKH46fv3rcFpYZBaK31XPJUnVd7Du9s/RGNf+ufihX+diw7/RlWa5il3l35Vhl4c4KfSl1Rn/v1748slGZe41Wh+ZuLFW+bI6ldP8+rmzPWqY87e85ofHEbuXpW7X2nfz8+8rnQWzCHHOoJ7H+BZfMT8+8bY9cA5faFzJsAm6Td9aHdi2kW+Yux+pNeVi34lE8vKVSXWfK3ZMtdPowEfkVFo+pk7XzUp1r5mL8tPl45vVNyFmXiZ8v1k6XUq9n1+M34qJ+h3WTerUmVLy/S7suceR0/PSmYX6OqiLq7VjPu+yCIYi/4Sb1chhNRZmYcUMqfvHi69iyaQ1++ag800SIScVd47TL6hF1hrwc4JJn5X1v5DWzF2N1kbaf3mxwDO7IWIHn5vq5EXS9C1ueXQj13ohjH8Jz8ye3cXkUIqIWnMC1orA4zHl2DebpN9Or+MCBdS9mYnWedof3EXetwJI74xjEEVmd2HGYOP9lvDRLv7igex+2rH4ZL6xxaDcriLPjV+nJDNjo/GPdpN5M7Pi++2f9hjDTU1td85moT2A9D4IQjLhlIX77VLI6iYsmF3ZsWoNnXnwd78r7blwwFunL52OKn+uVEnUsBLF3LcfOdxzYuX095ozVL5ZpxkXDcetT8nW78P664N7ThIj6ru67Bi51XdNpHP3gfZSUunDsZA2+HBiJ66am4s6kOF4Mu5v0y+sFnUf9N3+b1Iuav3PwMI6dqMGpJrFDkZCMWdMnIzZCX+U8YR33xvxg3eyN+nteNckbUu0rw6lvwxB7QzImDmsdFDWdPIh3PziOxguGIzFZ1OcePmuJ9Zs6qzfWc8mqdb3p5GG8W3QQHx8/jlO1QOjlY3HnPTMw0evaxtQZ7Nesi2VDPYn1L7hkfnqugcsJXCIDdjbdi/nb81gG3pgf1sGyMI951fuwzKi/YF3vP1jW1sWyoZ7E+hdcMj89E7i8hAIRERERERERERGRRXECl4iIiIiIiIiIiMiiOIFLREREREREREREZFGcwCUiIiIiIiIiIiKyKE7gEhEREREREREREVkUJ3CJiIiIiIiIiIiILIoTuEREREREREREREQWxQlcIiIiIiIiIiIiIoviBC4RERERERERERGRRXECl4iIiIiIiIiIiMiiOIFLREREREREREREZFGcwCUiIiIiIiIiIiKyKE7gEhEREREREREREVkUJ3CJiIiIiIiIiIiILIoTuEREREREREREREQWxQlcIiIiIiIiIiIiIosaIJIi/3B//oX8h4iIiIiIiIiIiIh6WMzll6n/8ghcIiIiIiIiIiIiIovyOgLXM6tL1F+xHXQv5m/PYxl4Y35YB8vCPOZV78Myo/6Cdb3/YFlbF8uGehLrX3AZ85NH4BIRERERERERERFZFCdwiYiIiIiIiIiIiCyKE7hEREREREREREREFsUJXCIiIiIiIiIiIiKL4gQuERERERERERERkUVxApeIiIiIiIiIiIjIojiBS0RERERERERERGRRnMAlIiIiIiIiIiIisihO4BIRERERERERERFZFCdwiYiIiIiIiIiIiCyKE7hEREREREREREREFsUJXCIiIiIiIiIiIiKL4gQuERERERERERERkUVxApeIiIiIiIiIiIjIojiBS0RERERERERERGRRnMAlIiIiIiIiIiIisihO4BIRERERERERERFZFCdwiYiIiIiIiIiIiCyKE7hEREREREREREREFsUJXCIiIiIiIiIiIiKL4gQuERERERERERERkUVxApeIiIiIiIiIiIjIojiBS0RERERERERERGRRnMAlIiIiIiIiIiIisihO4BIRERERERERERFZFCdwiYiIiIiIiIiIiCyKE7hEREREREREREREFsUJXCIiIiIiIiIiIuoT/m/EKPz3FVNgj4jRl3Rs+PcHY9Vl12PtsAmwXXixvtQ6OIFLREREREREREREvd5NF0Vhw+U34u7wkdh0+WSsjL5Of6ZtIy+8GO/FTsPCyNF4aOjV2DDiRv0Z6+AEblDZkL7ZiapaBYoi0tlaVB3KRXqs/rRHrB1ZBWWoPdOgrtdwphZlBVlI0Z8G0pFf3iCWy+RG/iP6Yn9iM+A4VIayIw4s1RdR35e+w63Xjwa4d6TrS6ldrzmb86zhULa+UNdhm9SZXQ8Jel+grac0tNEX9HrB6vP8s92XhXxXLRoa5HuLcqspQ/6qjl7Vf8j8KSyv1fJeplo3Cpk/sD2cC2dFS77UVjiR+7BNf9bDfBtNeER7v4azWj30/34+Aqzz/VsCUubYMXNqB3nbaRkolH2UK0d/TNSdclAm+52iDP0x9R0mYx4dY/WuyIZTz7uGM07xyKAzMXuRG7UyhuygvEzHUwGN7TbYXymE2xNviGQqjrCQQOPxlLWFKDtShuI37PoSf9KQuTkXuYaU/VR3xAKdMEP/vjLuk+Xs9/umaHWhuX6J+PCIqF/j9KfbYTquHJeO3CMt2yFj1bLN6aJGdYKfuSJj39Q6dTD31Is9cekYPBeVoD9qbcT3L8K7o27DiAsv0pcA3xswQP/LWhSZ3J9/of7LFHhK21El2pai1B7JV0Tno+QWOJWqBrGgKl9Ja14vSck5Ihc2KFWH5HoOpdBVq71ud4a+jl3J2V+mlFXI9WqVwsdaPsM7pSg5LrmOVKaIXRM/6zB1JvWWdmB/o1gpO1IlapGoIUWeemP91KP5u9wh8syt1J4VmebKMTxnpk12Zj0oGbv15a5CxSH6gvxDWlk1HMlRkgzr9UQKZhkEr8/zk5JzlDL1ZVWKs0C899ZCpUx9WXt9YudTrx37YrMUp8yf2jIlf+1Sxf5UtpJ/RGaQyJ9FNv+vsXgKSlnMzVfUWinzRdbJzfmKU6uUSv7clvVMt9HHCkWOyhXLlMKthjreIMbcZMN6XinAOt+J1GvrbbtJtHmZR0Ef0zKUQpn9Xv3++U99s8yYWqfuqse9J/XVum4u5mlJvTVW70zqvrJeqjiOlCnuGpnjxn3czsfs7v25SuYj6Urm5mKtvModSkrzeiKZjqcCG9uT3ihT60BDebGS+0K6kv5CrlKs7uO7FccM/68JRgpa2QQYj9sW6fGTXLPd+q/1mcrZBqXhjJaa1ZQpuY8k+HlNNyZPfWhwK8Uy7pPl/Kn8Jg2K8xVPfbApWaXqSqJ+OZSctdlKTkGZto/ZRn/QnEzHlWlKvuxy5HZszlTSH8lUcvfL/qRBKduYYlivveR/rkjrm8paJ8/c0yO+79P5ZJVx4JXLxitN1z7glZb86NpW6w3//mDFdXWq13rVo+9T4kPDW63bE8knP/0uZOp0ylSKz4g6X5qt2AzLk/LcWkPwdHD6zqV7q7Hh2ZTMEtlgRMOK9SwTaaMaArbZOaaI5xvE82Vqp2Ic3JgCTb2rHfS+nYSez18/O/Jm26TZ9WKzFacYwBtKMr36gpStPn1BD6XglUE39HmGlFagvso7uI3VP1OUn/Ezu5J669in5k+DU8nyyj892DvSsxNVgaZglIVar846lWxjviTnippk6CtNt1Gbkl0qFp0pVjKN7zfD4f1+vinAOt+Z1FvrbfuJE7hMfSFxArdv1nWTMU+r1LfrQ3eXdUaRzz6u2fF1jr/1RFInzxqU4uUty0zHUwGN7XbtfXwnjfVxqWH/UsOy4KZglU1A8Xis+H414vu5ytQ8a7/++28jCXOzlcJymbedmbDsekpSY0HvH/3lDwpe3zdZiwOrCtIM6xj6gzYnQM3Hlba1TvkJPtuhv76mUElvXtZ26txckf7eHU1Am0xWGgfWDpvgNTEr06JLxzQ/HzVwkPL3uHu8nq8afZ9yTWiE1/v0ZPLJT78LmTqb7s5Vys40KM7XfJbrv7KUbdQe29Vfb91Krm8nr/9K5XzFsKy9CVy9oVftSGs9uDEFnHpXO+AEbudT6x15s23SdNt9RQ64ot0uMqwjU6w2iVS1w+69/DynoJVBd/R5zUkPeD/NbRUYqv3dWRFo+ywPNPXOsU/LHzkB6ff5WJv/gNriqetlMVPJdTUoDYeyfZb7tHvTbTRLneht3cfalNxP5Yr5it1ruZYCq/OdSz1eb5vjkxQlq8itNMijTqSzYlfhSK6SPs5n/XHpSu4RsdvsWU+oLS9Usu7zHM2ijWdeaguVDONnrcrSd+YMcVGsXf189agXXUOF0+eIHU7g9nTyxKm5D4txQz2iTtNQ41SyZR2I1epHs7Nih3Nzuk8/ZlPsrxQqbsNq6tFZD/uWr+exqIeb9SOidGrdNLbLNuNsf3UmQXs/WQV1DbIOz/CNxfr2hJ2Z1CfrusmYp3Xq2/Whu8vadx/X9PjaQduu3Z2uPzYfTwU2trdd/up3MzkRF0gKTtkEEo/rk9rqpLiZ+t/eOilavHVW1AHD0am2+2Q8IHNd10bsYXY9Y8rcL2KV8vxW5ZLjEq/3xCWxScrMOXYlxfd9ni9WJ0zb/kHHfFyZJSdTyx3+z9xsrpdp4nUir8Xr1O0yps7OFekHO7jzkvw/38lktXHg9RE3eE3QyvTI0Hh18vbo1TO9lp+6xm6pyVuZjPnJa+AGy59mI37IICT+XH+ss9kiEI46VB3RHieOiALqyuE8pj1u9nI5qsQ/tmvMXCMpA4UbZ8J2YhvS7tigLyOiQJhtk2bXs8dGi/9Xofxl9WGLY06U1wFRNjEU9wXd2uclInqoeFmFyDN9icfqE+JVA21I6KPXZzInHhEXi1r2qQP25x0oLq9Vr1tVW14Mx/N22I6Vt8q3/mEbZscNwqDrF+iPdbE2Nb/qqlzqQ9NtdE4cogeKNU+s1h43E/W5Ql0R/lpzcMb53iF+sQMZCY0o+u0yzH50JfIOVCH0Gjuy3y5Ehuc6g7EiZnk7W+R7I0rfXIkF98/Gst8UoCo8CRkb85EzQ65Ugm1bSlAt/mr8WwHytuQh780ClMqnVKGY9HAGJoWWo+itXBR8LJdlIH9/LjKmRqBqzzos09+3/OIE2NcWoXCR2L0hC7Fh5ispwH69DvyuBHWirNJFHXDuzMLMi13YsGQ2Zi/ZgJLKUMTNyUL+Gy0tLEWst+GxJEQ3lmLbiwu0+va3UMxcm4lJ/m4SPXImskTdKnpZrHv/Mmz4S7VaN7P+lOO33bbPhoyiImSLPgGVRfp2rkPRV4nI2Dq7c9cjpN7JZMxD3cv0+HpO+wdiDPcnPNpzHUzz8VS3jO1Do9H2FTmtoPPxeNIb+ciYIEb1l1PxhG9edVoBZr9WhLqBcUj6md5zz8hB/sYMJIVXoeA3Iva4fwFWvlmKxlif2MOwnjpmyPV2im9xtc96PpbdGIFBtmlYpz/WpCE6XPxTXS4iTeFYkYhZ8lDwoXygsU3NROHPJiL0tBMFv9YX+jIdVybBJj6vTtTD2kdyUHikSr3ucm1FGQrfSEdCc70MR1R4qKzQkJFti87PFaWJ8dX2VQnyni7Sl/Qt8ys+wKZ/fqI/0mQN+zH+56o7EBsSpi8B6r/9BrcdfxcfN9bqS6yp1awuU7BSiuIoV1p+rRHJ69cbr+Tn1ye/vx7atF9R5HVS9FMZTP2qwmQq9a520Pt+1e/5/G19VI3ZNml2vbbbo78jes5/6t4y6GKfZ+a5No+qCCz1zrFPy58qV5nScLZWce/PV3ILivVrxZ3fU82CmbqrLHwvjWC6jbZzZFV7425gdb5zqcfrrdoO9e/pczSSdspey1Ec9m3y8B2R/77XZp6Rq7jPihrbfAppG/mjf1ZDaZbXEUDaqYoNSvHzPu8rT92UxdN8GmB/6HutnbT2IuqEz+nM2imiQqtTNvXTVZuPRtKvSSgeex1BK1LKZlkPhOby1ctbaX19yaX71TdR8ufoy9ocT3zqzByHehpwQ2m2kuC1nh6Ty3dprrfBa+e9NfWfut465mmd+nZ96O6y9h1rTY+v+tGErS6VpI9PLf2F9joz8VRgY3uSdmRlq1PmxWvUDem+/ffglE07381f/6l/L7m+lu/t5Y0ndbSOdtSq5yjprEPiA866lVyf/t1zzV1P7NHmevq405kjTW3qkbUyHmz9mmzxOQ1qWYrv8Kk8K8P7ea9kOq7UxqDaT+VZJA1K1ZFCxSGvPaxeo9aYv/5SAHNF+nV/fS8J0ZVkxXHgexig/P7yG72OtjWmf14zW0kY9EO/r+3pZMxPHoHbbeSv9bmYObIRpZvmwfd3lkDZns9F5tRQuN58AvN26guJiHpc9/R51LaokUDuzAjE3DgNs1MmISZyGvKOhSLu3mXNd5rt70RAj9x7bWg8vAHz2joiggJWvmclVvscYVPw4AYU14m8vz5N9Ao2TBsTBZx2oqR6Iuxz7C0pvAillUDoNUkQO8QdKj/0hOEIIBvSrhe7L3XFcDztc1zQsdXYsL9aNJBEzJyjLyMLqIZrZ4H+t6b8USfkcfF1riJ4HyO0EkUfN4rKEaodVbQoAbZQwPX2AqzzrW/356HkK/2BUbULDp84eeUh+WmhCB2qPTbLlpyAKNShePMCw1HhUjlWv1jU6sg06g8Y81janmVYt6caoROWwl3jRtmRMpSV1yJ/TjQaxfjkq/viqSIse6MI1aETsdRVC7fcjiNu1G5LQ/RXfjakV0uBY20a4r4qQuZ/rQ5iv1iFWtHHh4aLWEJECwmxYjA4VoL8cEM8IdJE0ee7xHq2BHvLen8rwmyfcaD80UQMGDAAMXaTR5rKI3kXTURodQFWP9j6NaV7tmHbWwUoOVGH8JGTMPNnGaJ3CI7w2Gg4l8QjeszNSJ11M+JHxOOJveJzpqYjM1lfyUcgc0VJz89EgjzD6dd9+8zu76Dgwc//gm11J/QlLc4p3+F2926UNvxTX2JdnMDtJvJUr8yp4ajbuwypj7d0YXUiHm3XuXZWSNY6EHyciwUPegfBRBQYs23S7HpVX3Wwoue0rj4muH1eHRo7yqc+mo/mVKNOBKl1JRt8grMCLCsReX9xHJL69SUmdDLofj4J4afFDtS9LZN/ptvo6UZ0VH396dI436vUofyQvx0gseMmr4UwNAozxX9RcrJsaBKWbs5FrlfKwUyx02xOHfQrYOj0960u9ztxkndanvrW+Yk66k61qNqi/2lCbYOhncRF66ep+5sSqEWDv/Ggrgp5+p/NKmrFu3TezOER4v9VKPf3I9Ce2oD6Cerd2op5qHuZH1/F2HDLJMxesQ0lYjyKlm34dDFW358IhxyfmvsM8/FUoGN7+cs3Y9L9K7HtQBUQFY2IgXUo/s1sJO6UF16wOvPxeMZu+YNGHYpeuLnVD7tdE6devkC7DJb2t7wMgnc8IVM6JjZfTkd/TY1X4NB58hJQG9PEu7mw4b+m+fzQqFEvqXP/NEyyRSDxd+WwzchE7nL9SV+m48pS1MnB6lgB5r1s7F9EvX7bKUrFhoR79UVGAc0VpSFjqg04LOr8Hn1RHxZxwYWIC5WVyNvAAd/DuME/1B9ZGydwg86G9K1uOObGoVEM6klJ3r9AOSvEqBFuQ6LvdVcesalHGVSd8L7iilH6olRR4eTRKmkoVBQoesoSAYTsqNLkY1eOtjIRmWK2TZpdL++YDMiiYVukPjTwBCDex+/0ft3R5zlRdVq8bERiq1+x04err0L5b7TH/VOZejSCP+WeHYg2rvvWX9gedsC9VTsSZNnt3jsTptvoFheqxI5J9MjWx4fGRYoVT1f5HI2n6co437uEwzbG33EmGbDJA2VOV2Ob+K9atGVUF2D2gAHqUS+tUoQoH/V1naG/71DR/2gLvCRdLIIlsZvUKNeh3s9VJXZYwxHtt75FYFA393fbKuUPAqLPeEx77CU5ArK2UX/RfsxD3cv8+JqAlDkTRRk9gUljYhAREY3466fhiTdTYJPXdG2Oxc3HU4GO7Qkz7Jh4rghP3BiPmMgIRMclYtrjeUiR8WwbcYR1mI3Hc5CWLOcjwpH0SsschaLIyU+xdGqW+LsWhf760A7Y1iaq71H+sbz6rIjL5MTm4dX+4wmZ4uaJFbSJ+fBI+coAzchCcUmWiCdcyHtwmvcE/9xM5G7OQrpPXSj9ebHYwlBZTfwzHVcWqfdk8Mszoe5n3Atkrsj2fBqSohpRsm1Bn+/LLh0Yin1XTvM7gSv9etgEPBY5Wn9kXZzADaoUZJU4kX1vNOp2PoHEpJWtOuW8vWXqryYTn07Rl0g2ZNydKLq8cpS+pS/yw7UnV7uxh08q+JscYKpRIh//qURbmYhMMdsmTbfd1+QpoeFIvN37FJqUzUli6GyEa39fmbyRuqvPy0ORS0QuIyciU73BkS42AzOvF4PusdLWR1b1K1r+hCek+NyEwYbMOFHrzol87ceXC0hZVQznazMRfboAT0y8GSsNN5lQmW6j69SblbTK5xm5SLpa3myryOcmF5qujPO9jS05G2n63x6251MxSTTT6iP54tuWI98ldnqjEjF7rr6CR3IOnLUNqN2fqS/oDP19hyZipu/NykQ/sTRZLKt2YlsnjvgkC3u5FOVipzVuapYYdbylbJyJBH83MTPjiDYxbJvo865zkxBv2L8r3+MSUXY4Js3K9Ooz1Hb9VJLPMuq7Oo55qHuZH1+TkLE2F45XfE5nn5uC+KFinD/gGb3Nx1OBju1Jj61Dbl6Wz/unIWVMOBqPlfiNI6zDbDwub0Taeo4iz+vmpJ4bkHaCPJPqZwnA6SLkPiqnF1ejVJ79fnUSsnwmT/FYPqrONKAsb6Z4sEG72dzVicj2Wc/2fKG6nvONifqS1rSDADIwcWAp1s2Kx+w3faY2bUmYOScD6Ut8bok5NxryfI22zxI0H1euK3W1znchZaJN1LdqlO/VFxh0fq4oCZn3yctDFGHDCn1RH3X59y/Ce7EpMN6wrOG7cyg884X+SPPSZdfjuShr31pQanVhXKYAUmyGku+5sHRpvpK7Odc7veC5KHSKkuOS69Uq7iKH+lz+oSr1wti+F1o3e7OeDi9MzWQ69a52YObC8NZKPZ+//m5mY7ZNml3Pc1OTBqXqkNYXOIrc6kXrlXKHIsI+fb2eSUErg6D2eTYlc7/IIXnB/WT9/T03eKh1K4Vb5XvmK84q9VWtb1rUhdRrxz49fxoqipWcp+yKfc5SJWe/lq+1u3tPn2BMXS8L0fZ2aHmg1DiVfN86uTlTv1GS+TbquSlGQ5X+flsLFbe6ouEGSXNzFbf40KoCT753YpwPMPV4vVXjkwaltqbBUAfTlcxtZVo+1hhubiZvKiZvCNMg2vLadLGeWPepHNGe5YpVSv5cz/uma+vVOrX3uzdJy6u2YqHm961Sit9Yqr9vrlKmboDxpmn++v3zn3ptXxOE1Hac2nYco77GcMMgz82HGsp96ttZUQfPGsu3nfJWbyBjrEtpSr5aD2sVp16H0l9w6HVIaH4Pw83KjjiUzEfk5+t9boP4fLm8+Tv0vtgs2KlP1nVTMU+akvupWKcq33Cjq75dH7q7rFv3HebHV+0GpmKc35+jLDW2bd+bJpqOp8x8tp86MMOh3VDN8/6PZCqOI+qGGMa/4KeglU2X4nEz9V9fpyRLG8fVsTxbxGWyf5cfI8rfeGOw5u0pU3LV8pJlm6/GYUqDU8nyxB5z89WbTyoiftPKVay3tlBRN90Yo/iklLVOUcLyvcT3zfNp55uzlQx1P0UfO87WKmWbfeIP476Mn2QqrpTJE+OI7+l4QcZOLTFWw5EcJUldz1+f0zq1OQbredSZG7qZTVYaB2wXXqyUx8/yumHZl2PmKDdcdKkyEAMUx8gkr+dkeil6nN/36qnkk59+FzJ1Nj0iOo4zIohrKx3Kblk3Nl3JFR23GnBK8q6XRVmtJ3Y4gXveU+9qB2YGRWulns/fNnbszLZJs+uJIC9LTgg1r9cgdvpyW909uydS0MogqH1ekpJzREZUVYrDc3dwkWwPi2CoRi7XyeBxlfddzLuaevPYJ/PHqe9QqmQgWeCvPvaO1PWySFfyy/3UxebkVLKb1zXfRlNWeYJrTUON2Gl42LDTot9VuOFQVssy031FYKnH660nPlmkfU+jhnI/d2GekaUUirLx4puPIiU9r+9cSZ7Ju/ZioXFLFYfL+/Pl+zqWJxjW4wRuT6e249S24xj1NV53fLcp6Zv1HXqPM24lf/lSn/LtzASuSL51U/ajYie99XtofUZzm5ZqRJ9ynxinxJ8t36H3xWbBTn2yrpuKefQJFzmJ1Pzavl0furus/fYdpsfXBK3PMIaR/sYnkUzHUx1+tr86ACXhke6PZ31TMMsm8HjcTP3X1vHVUFulloHdT1ymbY++os5f7OF/vXxl6Tjv9Ywp+5Cf9t2cxJjziL6ub12Q/MQ1/lKHcaUnifEp3xjjiFi16pAxVvVf33yT/zHYpmSWiDI9K8axbtg/tco4EHthmFIR/1OvyVk5eTv14ujmdeQk7g5bstc6Mv162Hiv9+rJ5JOffhcyMfXLxHbQvYn52/OJZeCdmB/WSSwL86nH86rVpGqCkjJnppLU4U6AXM+upLSz8xRY6q73DV5i/Q5eSphhV2ZO7XgnuVMpNkmZ6Tnqu91kU5LutXZd6+nEut5/EsvauqlflI3st83EHuNSFPucFCXB33NM3ZKsUP9+NHCQ8pnP5O1X/3m/csuQYa3WvXDA95Q/2272WlemZ6KMBwT0XDLm5wD9D4iFiLn8MvknUb/FdtC9mL89j2XgjflhHSwL83o8rzaWQZkbjaLHI3BzP77ecmewflN/wbref7CsrYtlQz3JCvXvjrDL8Zat5TrFZ5XvkFpeiHfPnNSXeLtwwPfgGHkzbgkbpi8BXI11GPv3P+uPeo4xP3kTMyIiIiIiIiIiIur1nA2ncU75Tv37W/HvrBNFbU7eSt+Ide4V6xQZbmz2l3//Q//LOjiBS0RERERERERERL1e5dmvMd29B5nVh3Hr8XdRUF+pP9O2RuVb3Fn+/7Dkiw/xdJUTT35xSH/GOjiBS0RERETmvfYEZt+fhpU79cdERERERBay96sqrPjHYezvxJG08kjc1TUf41en/oqvvjunL7UOTuASERERkXkfFiBvyzYUHdMfExERERFRt+IELhEREREREREREZFFcQKXiIiIiIiIiIiIyKI4gUtERERERERERERkUZzAJSIiIiIiIiIiIrIoTuASERERERERERERWRQncImIiIiIiIiIiIgsihO4RERERERERERERBbFCVwiIiIiIiIiIiIii+IELhEREREREREREZFFcQKXiIiIiIiIiIiIyKI4gUtERERERERERERkUZzAJSIiIiIiIiIiIrIoTuASERERERERERERWRQncImIiIiIiIiIiIgsihO4RERERERERERERBbFCVwiIiIiIiIiIiIii+IELhEREREREREREZFFcQKXiIiIiIiIiIiIyKI4gUtERERERERERERkUZzAJSIiIiIiIiIiIrIoTuASERERERERERERWRQncImIiIiIiIiIiIgsihO4RERERERERERERBbFCVwiIiIiIiIiIiIii+IELhEREREREREREZFFcQKXiIiIiIiIiIiIyKIGiKTIP9yffyH/ISIiIiIiIiIiIqIeFnP5Zeq/XhO4noVE/RXbQfdi/vY8loE35od1sCzMY171Piwz6i9Y1/sPlrV1sWyoJ7H+BZcxP3kJBSIiIiIiIiIiIiKL4gQuERERERERERERkUVxApeIiIiIiIiIiIjIojiBS0RERERERERERGRRnMAlIiIiIiIiIiIisihO4BIRERERERERERFZFCdwiYiIiIiIiIiIiCyKE7hEREREREREREREFsUJXCIiIiIiIiIiIiKL4gQuERERERERERERkUVxApeIiIiIiIiIiIjIojiBS0RERERERERERGRRnMAlIiIiIiIiIiIisihO4BIRERERERERERFZFCdwiYiIiIiIiIiIiCyKE7hEREREREREREREFsUJXCIiIiIiIiIiIiKL4gQuERERERERERERkUVxApeIiIiIiIiIiIjIojiBS0RERERERERERGRRnMAlIiIiIiIiIiIisihO4BIRERERERERERFZFCdwiYiIiIiIiIiIiCyKE7hEREREREREREREFsUJXCIiIiIiIiIiIiKL4gQuERERERERERERkUVxApeIiIiIiIiIiIjIojiBS0RERERERERERH3C/40Yhf++YgrsETH6ko4N//5grLrseqwdNgG2Cy/Wl1oHJ3CJiIiIqO8Yl47stelI0B8SnV822J/PRuZ9Nv0xERERnU83XRSFDZffiLvDR2LT5ZOxMvo6/Zm2jbzwYrwXOw0LI0fjoaFXY8OIG/VnrIMTuEGXgqyCMtQ2KFAUkRpqUVaQJZZ6s92XhXxXLRrkemcb0FBThvxVxrWy4TwjlqvJKR4Jj+TD3bysdXLvSFdfSX1f+g43y900Y1vyTXrbMkh4JBfOCtE2z2pts7bCidyHW++EmV2v47bem9mQvtmJqtoGrb+T+VBeiCyvndbO5b9R3867rrM9bKiDIv8bat0ofMUuSqW/8zN+qrqnL/ASa9diAPGeapmc8R8D9DUZRbXi+5YhR38cdLFJmDnHjpRx+uMO5GzKRvoj2ch9Q19AvUbCDDvs9yb1mn7MNnUm7HNSvH8seCQH65anY+naHDBC6wNm6LGIZ6w1E4v007EgWDzxjRpbiuR//E3wjkHFPnfVoVykx+pPGwQ9Zg+wfAOKK6wkwO9tW+SA80gZyrYt1Zf4k4SM13KRu7kl5byQDvuMnvwp1uS8ToDxuNn6Zq496F5zinLRY9tDPpHtuHTkHqpq/j5q+RWJeMlPm+mLnrh0DJ6Lars+jfj+RXh31G0YceFF+hLgewMG6H9ZiyKT+/Mv1H+ZupJsSlZpg2gPDYp7v0MRHY/iKHIrtXJJaZYimpm2XnKOUqauVqU4C3KV3K2FSplcSaxZ+JjnvZYqjiNlirtGLi9TxE6Rgjk5SrFYVtYqVYlPFK/ena6/linQ1Fvagf2N4pZyL8rwu44VU8/kr2hvIp8aKvy1HYciQomWdR8rVNurUlumFG4VbbPAqVSpbVW0weQA1jPV1s9vCmYZpO2okl9GqT2Sr+SuzVaytxYrbvX7OpWsWM96nch/YzpPeddrx765+Yqa+6IO5m8Web/WoRSXqxmmOF+x+X+NxVPwysLP+KmmbugLvFKSknNEK4OqQ6JNbHYohS71XcT4HNx+2mr1NqNIfk9jXgc56eVRttHPc35S0vP5ilOUQWabZXX+U6/ta85zynHJBlOoZPh5zorJf91PU3L2lynFG9MMy/pP6lN1PTZLcardulsplmOB7Nc/lWXe3lh7/saCnk7dUtZe8Y3Mc9GfqwNwlZI/t2W9jN16nroKFYdYL/+Qtl/UcCRHSTK+X9Bj9gDLN6C4IvAU/LIJ8HvP0PNVcuX4X0dNGUqhfLuzDUrDGT2d1V6mnHErha/YW+ZSzksyOa8TaDxutr6ZbA/NablDxLRiO2XeGfM7VuSvjIs9nyffq6BMW68m+GOuVcaBVy4brzRd+4BXWvKja1utN/z7gxXX1ale61WPvk+JDw1vtW5PJJ/89LuQKZCU7FDcsjkVeAdsS/fLRiY6Z31CI61ANkO34pjRsg5iM5XiM2KxaGjGzsnMTpFtrVN+qv9GzNSp1LvagTYZwQncjpKWTx3v+NuU7FKx4pliJbN58lGkGVq7bslns+t1rq2frxS8MtC/R2m29/dYXqwG0GVveJaZzX/vdL7yrreOfZklIpfPOpVsYx3EUi1/xM6Lcd3ekoJdFq3Hz2D3BT5JD7LdW1MMy21aWcnt8CqrriWr1VurTeBaMfXWvuZ8p74xgdu/U1+q60lb1T07n30sfaxtKxY5j2NBT6fuKGu/8U1yrvf4G5utOM8qSkNJplcZpKjlZZwA64aYPaDyDTCu6EIKetkE9L1TRJ8unq8pU9yyqxT52HodT9IncH3WsU3NUHKPyCdES9ydEbT4v8Nkcl7Hb301EY+brW+m2kOr5Ccv31APYVCKn/eeVNbmkeTylmXBSFYaB9YOm+A1MSvTokvHND8fNXCQ8ve4e7yerxp9n3JNaITX+/RkMuYnL6EQTFOjEfFVOZxvb9AXaFZ+Wi7+Hw3bDPnIjpkJUcCxEjyxUz7WHVsGx6E6IDaxk6dbJSHz9gTx+iKs3qQvIqIApGPSNUDdIQeWHdMXSTufQIl4HB6XJFqvZHa9YLd1q3Eg8+ezkfr4asgertmBKlTJfweqjwLU1/Ou6xwvpGG2/QmsNtZBlKDqtPinS3lP5tu4N/vdiYgSraFkSYG+RCrHsm3FqEMcEn+uL+pl5Cl+heUtp+6pp30eyUV6B5czMP06eUrfkZZTD2XyuhTLY4WofSUJ4eLPuLn6Oq4c9akM/dINuQ/noqxGPqddxsGzXFtLE+j3oHb4lp3IU3dRFlI2lonHtSh8TF/P93GzDIidzObyzHEpSLta/BGehCy1nIyvscH+SiHccn1PGZ6pgnOz97WOW9cJLTXUOJEt61Ssts3N73G2FmXiPfTapvPzWTXyPb23V35W1lS1ZiJNX69so3wmB2JXGWLnWj7QydO9DafiysTL3lheUnQEGk84UeC1j7USZZXinygbZmoLvPTVseD8mAmbaFKNh4uxwDj+7nGiXIR/4dFx2uOfT0LCwDoUb1vmFYMWLCkRj8MRP9UzSgc/Zg+sfAOLK6wkkO+dsjVb9Ol1KFi8QawZmPK9qzF7TCKe2FuHqORlyDGOIx3FDx5m1zMyNa8TaDxutr6ZaQ82ZO4XY1qDiHmStaf9UrelCuWbvUuiXMRFdQhFuNicvurRkwfw+399qj/SZEZfh0eGxiNq4CAUxt6uXvvW48tvv0Hy8XfwcWOtvsRaOIEbTEsmIWJIDKb9Rn+sS4uKEP8XDUZtoImIHio68ArR8ORDg9UnqkTjsiHhEX2BGXMzkBTbiJI3l6FIX0REfoR7X8Os1fWD5sQhWgxuVSdW6ws8xOBdIUZJEagnyYdm1wt2W7ecUhRsycO2vYZvNy4NOatSYGt0ofhNfZlHR/nvpa/nXdeV7sxD3ltFhvxJQNobWUgZ2QjX/jx9GfkVrL7AR+IIEf3WiXW8gnjh5XL1Rw3bNb3wZ4cZOcjfKOKM8CoU/GYZZt+/ACvfLEVjrB3Zbxcio63rppl9XWwGCt/Ohl3EMaWb5Hqzsex3JaiNSkLGxnzkyB2kjwuQ+7YLjeLP6gOi3ot+J+9PJerLNTbMXGVH9Fclok/aJnab/DBsz7YXF2jbs1O0nqs7+B7UNk/ZXSPayv4NWCbL7rdFaEzIgKO9neJ2lPwpDyXV4o+vXOr4krclFwUfa89lFBQj97EkRFQWYN2S2Zi9ZB0KToQiYU42iooyWk3AznwlBdi/Egv0OlV3cQLSRZ1y7szCzItd2KC+xwaUVIYibo7oE95oadUpYr0N4rOiG0u1+vLoSuT9LRQz12ZikuGG1KVvi+37m1ozUaJurxgT92vPebMho6gI2XNsaPxQyyv1s+uikfTYBlE3O7qCJPWUZTdGYJBtGtbpjzVpiJbz9tXl2KYt8NInx4LzZhtmxw3CoOsX6I91sTZEiLZXV+VSH9pjo8X/xb71y+rDFse0ia0om96euyFmD6h8A4wrrKTT3/uxQuTea0P5W2mY1uWDzMqx+r8ccCEck2ZlaouM8cObel//mwJUhRviB9/12ooz/DE1rxNoPG62vplpDzZEhYcCoRGIaG8Sdn+5GKlsmPi08UdDMTbNSET4ObHf9pa+qI+aX/EBNv3zE/2RJmvYj/E/V92B2JAwfQlQ/+03uO34u5advPVodVguUxCT4VB40TGLZe2c9r5Rfcbruiftn5qlX5ulKl9J8/s8U2dT72oHvISCuaTlk6Req1Ve82droXYqj/HUlXZO0fVqh2bX62RbP1+pO8ogfYdbaZBnFAkNVU4l92Hj6Tkm898rnb+86/Vj3yP5ivtMc+Yrzs3p5+/0siCnYJdF6/EzyH2BT2r71O926nOA6XzV26xD8tQ9t5Lr005ti7Q8cuclqY9988Xs6+zb5CmEoj0v8rlOnH6qZsP+pdrjNspE+1wRBu3wPsXR9Paopw62bE93pl7f1/gkrewaFOfaBO/n5HX21GIx9NNt9tutT/P0247000V9T5eWcbBW1i2nuHvqhPdpvi1l3Tpm1k91Fcvt6mP9mqficbrPKcEpm+VWCIbt9a1rWvJp83Mcan2Wj723P03Jl0+cKW77evC9MPW1uu6bbM/rl4ra6L/fOJ9jQU+n81XWvpdG8N/uZPLpU7ohZg+ofAOMK7qSgl02nfre+vVWG0Q5pKjL/JzS3yp1tI5d6y/LHeqcSpvxwwwxXsjLa+jxg+k4w0xqNa9jSJ2Kx83XN3+p9aVCfJP/vExZVaxUybypcav3f1DvFdHgVvKX+4zjQUhWHAe+hwHK7y+/0etSCcb0z2tmKwmDfuj3tT2djPnJI3C7VQpydmZg4sXVKFg1L/hHyCZnYubYUPXUAu+D+4moRSMav2pE9Z4nkDhmmvrL6+xZNyNm1ga4ztmQsri9O6KSGa79Bdj21jYUfVwNDE1AyoMZhju0Mv+71d+KUPCnbdi214Xqc1FImJGGjLaOJuj3WBc7JwMJsaHqKX754XbY57SkidUuuL4CbAn+Tvo0+zobpo2JAk47se1ln2NQNk1D9IABGHTjSn1Be+pQtqe9KEjfHtFWZhtPVRTKH03EAPE5MXaew9Q5etnVFSP30VJ9me7Yaqzc43tMUdfY5kwUn1iH4q3ep0urR2VtKkY1opB4t7EuVsO103iaryxrJ+SxSnWuIp+YeaUYuxqB0FDIY/qwKAE2UV1cby/AOp8jzQruz0OJqL+dZUtOEFtYB+effC45JLZkWvQADBgySWwF9QryaP5FExFaXYDVD7LfOB9si7QjORsPb8C8X+sLycJsyNySiaSLXchdPA/ePXFX5KGqTvwTHg7RSzfHDyXVE73iDHt4EUorRZd+TZIY/YMVZ0gdzOucp3g88PaQgpSpcYgaKKJhEQtLjV+JDA21IfGW2Yb9tr7rOyh48PO/YFvdCX1Ji3PKd7jdvRulDf/Ul1gXJ3C7jTxdKle9lpdrk/HUgTo0ntP/bEtHz+vSHkuC7VwpCp5mAEHUtgVIHDII0bf47DjtWYlS0X+HDtVPJDndqJ6i2yGz6wWxrVtd0cvylORU3DwmGvGPFqFxXDqy8zwng5nMfy/9J++6bM9q9bSx1KR4RCcsQFFjAtJfybX8qXg9I8h9gY+6jl50LpB37Ulx2mnCV9uRuznXJ6WLnRhtrdbMvm4mooaKf06X+5ye3FlVKPc5xdGbtj11NdqptxQMetlVl8P3hGCpSN85DJaZw/VTVv3trG6pgjzRMfRidfpVV4uqLfqfJtQ2GLY3LhrhYgyqOuKzs6+qRUMAY0/z9rdbT8ny5KnYG9NEj+LChv+a1ubBM31vLOhBcsL8+SSEny7CsnufaB67qzrqYzzttBti9oDKN8C4wkrMfu+kN/KRMQFwbVmAeT4/mnZNBmzyEgGnq7HNMwYNTcLSVnFGDmaOVF8gBCvOaGtex6BT8XiA+zlttAcz7Ns2qNf8L1ocgwhbPOLHiGSLQOLTJQj9PxmG/ba+LeKCCxEXKoNUbwMHfA/jBv9Qf2RtnMDtFinIKnEia2qo6LxEI3/Q+NuTU72odfiIRNEVeEsfrl/Px0yAF5uJtBuj0HjA4X1RayLyNi4F9jkzkdTWNQ4HDtLa4hYXqsRgGT0yQ11sFBcpOvrTVVCPMzK7XrDaulUli8FeBElLfX5dLv9tAcrqxAAZpd9Wxmz+e+njeddlSch4LRc5y31+Lz+2DgUukflDo7xu6kO6YPcFPpwV1aLS2pDo+/6P2NQj+6pOdG334fwT+SCPdjm8Wj1K1W+Km6et6sXs60pRJ9cbamu+OUz3qEbdV6JoIvWb31AQbEO1vEFLlNip1RZ4Sbo4VP8rOLZVyinaaNj8Xfs8OQLy0xq/kldhDAJXldi1Dkf0mNYjkxjZMGig/mcnlJ5uZ/upd5iRheKSLPWowrwHp7U7MdX3xoKeYXvYAffWNMR9VYRlt9/sdZOovGOyvYs2tUh73EL/wa5KH6W7IWYPqHwDjCusxNz3TsfSu+NEnxyKuJ8VNt8wTFFE2xFfE1enqY/L1Js9dtLcJMSL96j+VF5vVh+Dqgsw21+MIVOEqDNBiTPam9cJNB7v/H5Oe+3BjKS4KOBEEVb6HIlcusIBp9hU2xir30av6y4dGIp9V07zO4Er/XrYBDwWOVp/ZF2cwA222HQ4PnWovzyV/iYV8ffn+fw6koci2aBHTkSmceIjNgMzrxeV6VipWKNjSc/b1UP4izbypCuido1Jx+rNDuS84DO4Ji9FwkgR5DVfQH6demH+8IQU7xvazMhF0tVi5/BvRfqvt2bXC05bt65JSJmThice8wlG9QvrNx+BYDr/jfp63nXdpNvtSHs8w2fyxAZbhMgfsZPQ24/06BZB7wu85e0tQ50og4lPG9/fhoy7ExEu3rm0190gQuz6yLPMrk5Clu8O22P5qDrTgLI8f/dgN/u6IrGDI3YIh8YjZa72dDOR12VivaoCvYaLOi2FDvQ3qdaRDdpNV65ORLbP9tieL1S3x/nGRH0JmVOOfFl24ZOQ+rxPmYh+eulUn2VHtElR20SftqfvkHvRy9qofI8L1eL1iXe3vllZxlNJ4v/VcP4pSKPCy6UoF9sQNzWr1SmlKRtnIsHnyHPtKKpQDPKt6wZFb2vbH397mr7EIwW5rgY0VOT7nQgna9AmTjIwcWAp1s2Kx+w3W0ctRn1vLDj/UlYVw/naTESfLsATE2/Gyg/1Jzxek5dEEX3C7d59QsrmJMSJCMi13zNKBz9mD6x8A4srrMTc93ah4C39ZqNeqUC9fBKqS9TH/m/22A5RDoWrUhDV6EL+r+Wx7/oYFJWI2b7xQ3IOnLUNqN0vb3bWiTjDnw7ndQKNxzu3n9NhezBDjlXq5Sd86PttjV+JfOrDLv/+RXgvNgXGG5Y1fHcOhWe+0B9pXrrsejznOQjJwlpdGJcpwDQjW3HKC0YrDYq7KFe7QYohZS/SL3Y/I0cpk9e4rnUrhVvlc/mKs0ouaFCKn/e+wLb/C5vrNz34NLf1BbSZupR6Vzto5wLoFk09k79JSs4RtcEpZQXZytI5diX9BYdSJptWg2hbhpvaeG6wI2/Eld/WDY46sV5n2vr5SsErA/0mimp/l62ki3y1P5KtFFZoed1yYX1z+W97oVipPduglL3R+X6yK6m3jn22V5wiJ0RulBcq2Y+IvJ+TrmQXVanLanf3nj7BmIJdFq3HzyD3BXNzFbd4OxH8669LUXJc2vu7ixzquJ9/SCuT1jdf6lo6b/W2uR2WKblPyXom8yxf/d5Kg1PJ0m/y1CqvTb4OsfoNo+RNNF5IV9ezP5Xrp0y08U4pz1cyZX2fod1wo62bv7Rart+sRBHlmePZnrWFitql1BQqYofa6/XdkXprX9Nm0m9So5wV7WlbpjYGPJWjFIsxoEG9q6VxHNDjVrHM+cZSvT7obU8y3Gglfbdc6FlvppKklo3nZmUNStX+HLXt2ucsVXKPaG8g4yBP+2qrTrQXM6mvMdycJ2Vjmd6/Fuv1JV3J3FamjlENZ8UTxhvDvKHWTMVdoOVByji53PezDOOlvl7L9otxb6P3Ddd6e+pLdT1lrVMdC2QfVZgnYxFjylYykv3EL+dxLOjpFPyyFm19h5ZXSo0+/nqlTP0mhIY+4ZB2U1JHkVsrq3KHfuMsLQU/ZjdTvmlK7qdiSVV+c79iejuClIJfNl2p1524idmnDnWMUNMjmUpOgVMbq89Wed+IzDMGyba51hM/5IgyE8sMN7Y0H2f4JJPzOgHH46bqm5n2YFMy94sNld9F9Efa61rnt2c7a0uyFLsn5hmXpuSUqhmhFC/3vDY4yUrjgO3Ci5Xy+FleNyz7cswc5YaLLlUGYoDiGJnk9ZxML0WP8/tePZV88tPvQqZA0muiYZwRwV0byb0jvXld28Oi46hRm6NGNt5VrQM4f4Go5+6nzrXBm8Rg0lLvagdt74xYNfVY/sbalSwZ2MkdL11DhVPJfbh1G0pZ5QmoNA01ZV1az2xbP18puGWQ0ipflTN+vp+J/E8SO8Eyl6q22ZuXnY+8681jn28dVMQOpLsoy2vHpTelYJeF34mcYPYF+l2lGw5ltSyLTVcnZdRJHums3NEJfpmcz3qrtUP9++jkjkqWYafHb6xi4nVqmpGlFJYb2rkkdlSy7/Muk7Q8OYGmP6/vlPgt4zaW+9+efGWpOuHW/ak39zVtJj9lV3soW7FvVqMT7ztk+64rJ343ZyutduqTM/UfAiXjeyQoS9VJVP0pSZ08XqokeF4rUlt1ojMTuHKnOV18B9+xLX/50tbbKydqXHKhRrvLvL/P0sbL5r5BEtvvfM3epyb0ZOpLdT37kP99Oi2JOvGI//jlfI0FPZ2CX9bpSr7oJ/znt0xibGhe1ycGFTFQ7ZFcJd3PD3JBj9k7LF/P5KJTyTK8zux2BCN1SzsMuF53YgLXV4P4jP2iXP2N1X7jBz95ajLO8EqdmNcJNB7vuL6ZaQ+egxOqFMccz+v85bcY17aKvso4BkndNA5ZZRyIvTBMqYj/qdfkrJy8nXpxdPM6chJ3hy3Zax2Zfj1svNd79WQy5ucA/Q+IhYi5/DL5J1G/xXbQvZi/PY9l4I35YR0sC/N6JK9ikzBzYjjqSrahSF6SwCyzrwv0/TtLXgs5DnBtKTiv1xzs0/VbLbtQlJvJU7luAlD6lryOYWASZtjVG0nl7ez+EpSfZfuqBNv2Brq1vmxIunciwk8H8z2thX15/8Gytq7+VTYJSJkjB/Y8FLR3eYHzFWdYmcyD25OQcn04yvcUoaSb8sIK9e9HAwfhf666A1HfH6QvAc4q32FmeSF2nzmpL9FcOOB72DpyKm4PG6Ev0bzwj//Fc9U9f4VqY35yApfIgO2gezF/ex7LwBvzwzpYFuYxr3oflhn1F6zr/QfL2rpYNtSTrFD/7gi7HG/ZkvRH2uRtankh3vWZvPWQk7iOkTfjlrBh+hLA1ViHsX//s/6o5xjzkzcxIyIiIiIiIiIiol7P2XAa55Tv1L+/Ff/OOlHU5uSt9I1Y516xTpHhxmZ/+fc/9L+sgxO4RERERERERERE1OtVnv0a0917kFl9GLcefxcF9ZX6M21rVL7FneX/D0u++BBPVznx5BeH9GesgxO4RERERERERERE1Cfs/aoKK/5xGPs7cSStPBJ3dc3H+NWpv+Kr787pS62DE7hEREREREREREREFsUJXCIiIiIiIiIiIiKL4gQuERERERERERERkUVxApeIiIiIiIiIiIjIojiBS0RERERERERERGRRnMAlIiIiIiIiIiIisihO4BIRERERERERERFZFCdwiYiIiIiIiIiIiCyKE7hEREREREREREREFsUJXCIiIiIiIiIiIiKL4gQuERERERERERERkUVxApeIiIiIiIiIiIjIojiBS0RERERERERERGRRnMAlIiIiIiIiIiIisihO4BIRERERERERERFZFCdwiYiIiIiIiIiIiCyKE7hEREREREREREREFsUJXCIiIiIiIiIiIiKL4gQuERERERERERERkUVxApeIiIiIiIiIiIjIojiBS0RERERERERERGRRnMAlIiIiIiIiIiIisihO4BIRERERERERERFZFCdwiYiIiIiIiIiIiCyKE7hEREREREREREREFsUJXCIiIiIiIiIiIiKL4gQuERERERERERERkUUNEEmRf7g//0L+Q0REREREREREREQ9LObyy9R/vSZwPQuJ+iu2g+7F/O15LANvzA/rYFmYx7zqfVhm1F+wrvcfLGvrYtlQT2L9Cy5jfvISCkREREREREREREQWxQlcIiIiIiIiIiIiIoviBC4RERERERERERGRRXECl4iIiIiIiIiIiMiiOIFLREREREREREREZFGcwCUiIiIiIiIiIiKyKE7gEhEREREREREREVkUJ3CJiIiIiIiIiIiILIoTuEREREREREREREQWxQlcIiIiIiIiIiIiIoviBC4RERERERERERGRRXECl4iIiIiIiIiIiMiiOIFLREREREREREREZFGcwCUiIiIiIiIiIiKyKE7gEhEREREREREREVkUJ3CJiIiIiIiIiIiILIoTuEREREREREREREQWxQlcIiIiIiIiIiIiIoviBC4RERERERERERGRRXECl4iIiIiIiIiIiMiiOIFLREREREREREREZFGcwCUiIiIiIiIiIiKyKE7gEhEREREREREREVkUJ3CJiIiIiIiIiIiILIoTuEREREREREREREQWxQlcIiIiIiIiIiIiIoviBC4RERERERERERGRRXECl4iIiIiIiIiIiPqE/xsxCv99xRTYI2L0JR0b/v3BWHXZ9Vg7bAJsF16sL7UOTuASERERERERERFRr3fTRVHYcPmNuDt8JDZdPhkro6/Tn2nbyAsvxnux07AwcjQeGno1Noy4UX/GOjiBG1Q2pG92oqpWgaKIdLYWVYdykR6rP+0Ra0dWQRlqzzSo6zWcqUVZQRZS9KeBdOSXN4jlMrmR/4i+WMg+5FneOjlf01eiPi99h7u53N070vWl5NFe/tjuy0K+qxYNDbKNinVqypC/qqX1NeuwnXok6O1eW09paKPdCwmP5MJZIT77rPbZtRVO5D5s05/tjTx9nv7d5XcqL0TWfb7fyXweGZkuq37IWMd9U3/vE2wPa+1MrWsi+W9n3dxuTfcf1CIBKXPsmDk12H1iBgplXObK0R8TdacclMl+pyhDf0y93gw9FpFjgOzPO4pFHsmH22dcbk7l+WIvjzqWDWdzvjnFIw/jct9kXE9jdvw2G28GGpf2mfg/wNjGtsgB55EylG1bqi/xJwkZr+Uid3NLynkhHfYZCfrzPSFF+76yvPVY0d/39cSdzX1ErRuFr9jFXlL7TNc7U3Gt7jVnS5s45NMixqUj91BV8/dRy68ou8P9sb7iiUvH4LmotuvTiO9fhHdH3YYRF16kLwG+N2CA/pe1KDK5P/9C/Zcp8JS2o0q0BUWpPZKviE5HyS1wKlUNYkFVvpLWvF6SknNELmxQqg7J9RxKoatWe93uDH0du5Kzv0wpq5Dr1SqFj7V8Ro5LLDpTpZQdEc/7JMfylvWYAku9pR3Y3ygWZV4lapGoIUWeemP9dL7yt838Sc5RytTmV6U4C0Qb3VqolKnNz7udmWunWsrYrS93FSoO0e7zD2mf23AkR0kyrIfHCsWnyBXLlMKthv6hoUzJSTas180pmGXg1eetzVaytxYrbvU7OZWs2Jb1TOeRMZkuq66l3jr2ZRSJzDhbq7j9jAXFb9j9vsbqKShlMTdfUWulaGf5chzenK84tYFYyZ/bsl73tlvz/UegqbfW2/aTaPMyj4I+pmUohTL7XTl+njt/qW+WGVPr1F31uPekPlXXY7MUp9qdu5ViOQbI/vxT2aE0KM5XbP5fo48btZ+2Hp/L9ucodn+v6aWp+8p6qeIQ+eWuERkpWlRO83KtfTVU+MnbIw5lqfE9zI7fZuPNQOPSHor/g182AcY2M/R8k9odh/Wx+myD0nBGT2e1lyln3ErhK3bF5vd13ZVsSlap9n3d+x3i++YqjiK3WpYNpVkt2+IVd4p9obUOpbhce12bfYRMZuuTybi2OS13iLYgtlPmnTG/Y0X+yvbk+Tz5XgVl2no1hUqG8T2CkKwyDrxy2Xil6doHvNKSH13bar3h3x+suK5O9VqvevR9SnxoeKt1eyL55KffhUydTplK8RnRAEqzvTqXpDy3WGhoiHojdG9NaV5HdhCZJbIhio7cMOmBjWoI6NWI1QncHt4J6cupd7UDLYjhBG5bqXX+pBWorU9xzDCsF6u3XdGufAfjDttpbLbiFANfQ0mmV7tP2erT7sVrs0vFojPFSqaxjc9wiK05v2UYvDLw3+dhebEIWUQuvaE/Np1H3sl0WXUx9daxT53ArQ1+wNWTKRhlobbRs04l29jOknO921l3t9vOjPMBpt5ab9tP3TWmcQKX6Xym3hebBTv1pbqepI4LvhMlS9uPRdQJu7bjm76Uurus1VhHjpvNy7T2VbbRe73Wyfz4bTbeDCwu7bn4P+hlE1Bsk6LkuMTzNWWKu8Nx2P9YbZuaoeQekU+Ilrg7I2jxf4cpWSujqoI0r+VL93t/X79xp6ePONL29zVbn0zFta2Sn7x8Q7acBqX4ee9JZdtap768ZVkwkpXGgbXDJnhNzMq06NIxzc9HDRyk/D3uHq/nq0bfp1wTGuH1Pj2ZjPnJSygEy902hKMRpSULUK4vkooOlaNOPBM9RntsvzsRUWKNkiUF2gJVOZZtKxbrxSHx5/oiIgoyO2YmRAHHSvDETn2RdGwZHIfqgNjE5tPaTLfTn09CwsA6FG9b5tXuC5aUiMfhiJ9q15ekY9I1QN0hB5Yd0xdJO59AiXgcHpcktq63cSDz57OR+vhqr++OA1Wokv8OVB91Io+MzJcVUYuZsIUDjYeLscDYzvY4US6qTXh0nPa4m9ttvxjnN5ZB7Dqg8LEUZBW5m08bVE8NPZKL9HH6eh7ytL0jLacXyuR9uRV52nmayB2Rr1OztHVqC6GehO75rFVZKCxv0P5+TD4hyNM5xefXGt63QZ5a+EhPnnJJvjKK5KmfZch9OBdlNYayqnEiW9aBWK1+eJbLS5CVbU73Of3UBvsrhXB7LlMmU418T99LZHgei3q4ucyrbqh103iqaHM91h8383fZDXnZFcOptCI1yDo8g5dM6MuSoiPQeMKJgk36AtVKlFWKf6JsYtQhazI7fpuNNwONS/tO/B9IbJOyNRtpV9ehYPEGsWZgyveuxuwxiXhibx2ikpchx9hfdxhb6MyuZzQ1GhFflcP59gZ9gWblp/KbRMM2Q3vseCENs+1PYLWxfFGCqtPiH8++UCtm65OZuNaGzP1i/GwoQ06y9rRf6rZUoXyzd0mUl9eK8gtFuNicvurRkwfw+399qj/SZEZfh0eGxiNq4CAUxt6uXvvW48tvv0Hy8XfwcWOtvsRaOIEbLH+ajfghg1p1XjZbhNgdrEPVEe1x4gjROupEZ+DVyIWXy9VJD9s1ZqYlIryvx1JbBWerQJeIvCUieqhofmLn3jeIWH1CtL6BNiTo15s2207tsdHi/2IwfFl92OKYNrBG2ZK0x3PiEC0GzqoTq7XHzcRnVKgrQl+zFylFwZY8bNtryM1xachZlQJbowvFb2qLTOeRF/Nl1d/ZjNddb+PaXP3HNsyOG4RB1y/QH+tibYgQcVldlUt92N3tNjjjfO8Qv9iBjIRGFP12GWY/uhJ5B6oQeo0d2W8XIsMzURabgcK3s0W+N6L0zZVYcP9sLPtNAarCk5CxMR856k5QCbZtKUG1+KvxbwXIE31L3psFopfxCMWkhzMwKbQcRW/louBjuSwD+ftzkTE1AlV71mGZ/r7lFyfAvrYIhYsYFVmLDTNfEb3Tfr0O/K4EdaKs0kUdcO7MwsyLXdiwZDZmL9mAkspQxM3JQv4bLS0sRay34bEkRDeWYtuLC7T69rdQzFybiUn+bhI9ciayRN0qelmse/8ybPhLtVo3s/6UE8B4a0NGURGyRZ+AyiJ9O9eh6KtEZGydzfi7D1t2YwQG2aZhnf5Yk4bocPFPdbkYddpxpeG6lfLHLVe+WicpCMK9r0vc6pqgpsdvs/FmgHFpH4r/Ox3bPFaI3HttKH8rDdO8fgAJRDlW/5cDLoRj0qxMbZGp2MJnvU0iVtHHn9oon/V8LZmEiCExmPYb/bEuLSpC/F/EkPrEa+lOEa+8VWSoFwlIe0PE4iMb4dqfpy/zZbY+mYlrbYgKDxVhUgQi2puE3V8uYiwbJj5tvDavGNtmJCL8nNhve0tf1EfNr/gAm/75if5IkzXsx/ifq+5AbEiYvgSo//Yb3Hb8XctO3kqcwO1WKWKgThCty4mCX2tLZPtq18COVhCunomMiRANTXQYW7ah6HQoEuZko3Br/91tJ+pYOELVXx/boT9vtp1GX9zBip7PGxoKEy2711JvqCV/UDqUg9lRLuQ9Pg3z9mjPmc4jL+bLql8TQWr6veEo3yPHgjwUfNwI2+0ZcJRkckLBIOWFFPWIW+dObQequ9ttUMb5XiEcUaHFeOL6eEyTk2m/ETtGN8YgdZMLjUNF3Xxe2y21r3oCSUPrUPT0JEy6fxnWibq68tFpiL8/D+UD4zB7sbypyQYsu78MMlxurCpSd7Bm/3w1itR3kESeHVuN+Oh43DxrAVaL/iUpLx0pUY0oWZGI+JQFWOl53+ufQFFdOJIez0aa/mqyglBU7ZyN+Jl6HfgvUR9+VyoWxyEhvAgLbJMw70XRl704D5NsmSj5KhRxMzL0o9OykHlfHEKrC/DEjYlIXbKupb69WeV/vAitQsH98dq6W1Zi3o3RyPxLI0KvmYaMOfo6Zs3JwhNTw9F4eB2SrrxZ384FmCaPCisR76mvRv2D7fk0JEUBrhLRh+nLWhN90MMzEX6iSPtBao/oF0emICOvGJn95IZB3Snu7gxMOleMbW+KvH2rCLXyh7vXCuHwTMaZHr/NxpsBxqV9KP7vVGwjJ02XJCH0bxuwYJbxiN0uOFaE8mrRtUfFqZPe5mILn/X+S8Qq+vgT8/MCVIvxx7OeKbGZSLtRNP6/FSPPdyJbv3mhojiRMycari1PYNp/tUQx3rq2n+Md1xZh3phBGDAgGqlbtOf92jQNaS+XYNB98kwYN8qOlMEt/s2aWIuC52c377f1VfLaAz+vLMGbtce1BboffX+Q/hfw1bdnccvxd+Fs+Ke+xJo4gdtt5K/1uZg5Uv7aMw++v7sFqvGrRjRWFmk7THIH5/5U3HxlKjb8TXzi7cvQiS6IiCgoXPsLsO2tbSj6WERWQxOQ8mBGPz4K9Pxo/KoWjXUubJgVg0mz5FgwG9Ouj8ayvXUInWBHZnunUfUjtkXaESCNhzdgnv5DKgVP+Z6VPqcNAgUPbkBxncj769NEJGTDtDFiZ+e0EyXVE2GfY29J4UUorRQ7Y9ckaZdK6ED5oScMkyU2pF1vA+qK4XjaZwrl2Gps2C/6oqhEzOzsRB11o2q4dnrvyJc/6oQ8fqjOVQSfk1TFeNIoKkco5PHyWJQAW6gYa95egHW+9U3srJd8pT8wqnbBYTw1VVh5SH5aKEKHao/NsiUnIAp1KN68wHBUuFSO1S8aj7yiPm9GDvIXTVR/TFj9YBuTM+caUftVHVybUhFzY6r2g1RKIqKXFKHuYtEP6j9uUSDEfrDYF67e8wQSx0zT8nbWzYiZtQGuczakdGYyjrqJDZlbMpF0sQu5i+chSNO3Qh6qRGyB8HCIEcFkbNGy3raXfXrqTdMQPWAABt24Ul/QkRTk7MzAxIurUbBqnuEHZt3filDwp23YtteF6nNRSJiRhoxuOOI+8Lg2BSlT4xA1UJtPkhpFP4VQGxJvmd0v9tu+g4IHP/8LttWd0Je0OKd8h9vdu1Fq8clbiRO43USe6pU5NRx1e5ch9fGWDqNOay9tE4N+exZcPwiDRtzss8NUJIJS8RkXh4tuioj8q0PjOf3PtujPm22nVfoA2CbP550WAaf+Z1+knaKaipvHRCP+0SI0jktHdp62g2I6j7yYL6v+at0dMRgUEY95PhMUq992ityLQNQ1+oL+TO5oix3l8NNFWHZvy+Rfd7fbro7zvUcdyg/5m8BYrR4lg6FRmCn+i5KTZUOTsHRzLnK9Ug5mjlRfYEId9Ctg6PT3rS73+wN53ml5LG/nJ+qoO9Wiqr2jg3zUNhjaSVw0tMuR+ZsqrUWDv/Ggrkrs7vuokNf667yZw/VTZv3tLO+p7dPjOxnIowo3ymt1u7Dhv6b5/Ohg8JtpiBkSgfgHfaaufl0Ap6iAEVG8RnfgFiBxyCBE3+Jz/4U9K1F6QvT6Q/U9YdPjt9l4M8C4tA/F/2Zjm6Q38pExAXBtWdAqRu2aDNiixD+nq7HNdGyhr3e63OcyKJ2lHZiXdrX4XpvauCTEntXqZRxSk+IRnbAARY0JSH8lt41LZARYn9qIa82wb9ug3p+gaHEMImzxiB8jki0CiU+XIPT/ZDTvt/V1ERdciLhQeQ0cbwMHfA/jBv9Qf2RtnMANOhvSt7rhmBuHxr3LkJTkPcA4K8ReTbgNib6nzzxiU48yqDrRXveSgJQ5dsyc2tY0bSgG8bQcojY41QvKh49IbPVDR/pw/ZqY+nWOzLbTvGPyqk/RsC1SHxrEqddHq6vSj9XZ4kKVGIijR7Y+ziwuUqx4usrnqJ5eIFkM9iJIWurz63L5bwtQZthBMZ1HXsyXVf9kQ9K9dtjlJXra0tGpWX2c7WEH3FvFjvZXIsi93ftHz+5ut10b53uTcNjG+ItHjDtZ21Atb+RRXYDZAwZggL8UIcpHfV1n6O8rdtb9XVE4Sb1MhthxlutQ7+eqEru78obA/upbBAZ1c3+3rVL+ICD6jFY3OxOSI/rMKdLUjhlZKC7JUo8qzHtwWrsTU7apM2GfkyL22ijoxqWIvJ2JpLb2dwcO0uJG0+O32XgzwLi0D8X/5mKbdCy9O07+fIq4nxVq139Wk2g74uvi6jT1cdlG+cJOmpuEePEe1Z/Ksx7MxhalqJO/2rURK5iTgqwSJ7KmhsK1JQ3TvH6YSULGa7nIWe5z/OqxdShwiQ8eGtVGP9D5+tReXGtGUpwIzE4UYaXPkcilKxzqD0u2Mb3ldnqBu3RgKPZdOc3vBK7062ET8FjkaP2RdXECN6i0Bp59bzTqdj6BxKSVrTrlvL1lIgiVF5A2NnQbMu5OFKFpOUrbvYB0ItJX5cKx0fcmNUlYqp5K6OfC4kSky0ORHExHTkSmcdIxNgMzrxcd+bHS5qN1TLfT1+Tpn+FIvF2epNMiZXMS4iAvXu+ZqFmnts3whJSWG/tIM3KRdDXQ+LeiLv4y3BMmIWVOGp54zCco1S+s33yUoek8MjJfVv3VzCW5yM1b1+paehm3yzoqAr8/6Qv6oZRVxXC+NhPRpwvwxMSbsfJD/QmPbm63XRvnexdbcuvrzNqeT8UkuZN1JF9823Lku8ROX1QiZs/VV/BIzoGztgG1+/UbknSK/r5DEzHT92Zlop9YmiyWVTuxrRNHfJKFvVyK8nNA3NTWN2lM2TgTCf5uYmbGEW1i2DbR5131iQKP8j0uVIv15M1zvGubaNdPJfkso75GmzjJwMSBpVg3Kx6z3+zguLe7lyF3swPrnvepGY+lIFHUq6oT7d76jNozJh2rRd7mvODTZpOXImGk2BVuvimU2fHbbLwZaFzad+J/c7GNCwXqPXp8UwFc8lI31SXq42375bqdIPK5cFUKohpdyP+1PPbdbGxRhAI1VohHiu96ogzKzjSgqqD15Hqz2HQ4PnWoRxSX/iZVu76u/pTHpNvtSHs8w+dSUDbYIkS9EOOW/wOXO1efOoxrzRDbol1+woe+39b4lcinPuzy71+E92JTvG5Y1vDdORSe+UJ/pHnpsuvxXC84S0Je01dxf/6F+i9TgCk2Q8mvaFCk2tJ8JXdzrnd6IU1fN0XJccn1ahV3kUN9Lv9QlSKXNJRkKmKob3nPjWXqeoWPtSxLeqNMXbf2SL6S/ZRdsT+SqTiO1MpXK2UbU1peyxRQ6l3tIEdRa0hRhp/nrJnOb/76yZ8ZYpnagNxK4VbZNvMVZ5Xa+pTi522G15ptpzYlo0hrf1WHtHbvKHKLVwnlDkWEOM3vaVtUqC5vqHIq+bJP2FqouNUV3YpjRst63Z2CVwY2JatUyzt3UbaSPkf2R9lKodoPGvstc3lke6FYqT0r+rE3krTXmS6rrqVeO/Y9ptenimIxvqQr9jlLlZz9brWOyjrvNZb0ktT1shB1bYfWTpUavZ15pUwlzbNeMNvt3FzFLT5U7ATor+vEOB9g6vF6q8YnDUptTYNaB3NkPDInXcncVqblY02hInZWtXVFfFRYI1cXbXmtrKti3adyRHuWK1Yp+XM975uurVfr1N7v3iQtr/zEQt7vW6UUv7FUf99cpUzdALH+Ik8/IdaTy1w53q8/z6nX9jVBSFp7K1NyWj3XdhyjvqZW1CP9cYqoB2obKvepb2LcaDhrLN92ylvtN411KU3JV+threLU61D6Cw69DgnN7+HpM8SaRxxK5iPy82WfK9p1g/h8ubz5O/S+2CzYqS/V9ZS1TlE7BNl/5fmOKdlKRrKf+EXWQU/fJMYdGR8tfaNYHSe8+sY+kLq7rFv3HUlKzhFtfC0ryFaWGttsg1jPEE+bjrvNxpum1ktTcj8Vy6rym/uunor/g182XYltzIzD+jqfOrTxXKZHMpWcAqeiZvPZKsO4LpLZ2CI2S3GqG+lW8tV4Wa6nxwo+dcYrzchWnGo5yf0cWd7eKXuR1t5trzi1PCgvVLLVsSFdyS7S8qV2dzvjgKn6ZCautSmZ+8WGyu8i+iPtda3z27OdtSVZit3TB41LU3JK1YxQipd7XhucZKVxwHbhxUp5/Cyl6doHmtOXY+YoN1x0qTIQAxTHyCSv52R6KXqc3/fqqeSTn34XMnU2PZKvuM+IIK6tdCi7Zd3YdCX3SK0WcEpnZUeY5bXTqCa/Oy02xf6Kp+PXnalSnJvTe+UOu9VS72oHvW8n4fzmr//8sT0sBu0adSjUyIFzlZ8fP8y2UxHQZMnJn+b1GsQOXq6S7idAT1nl3XYbasqU3IcNwch5SMEtA5/vLp3xl58d55Hnx6mqbfbmZabLqgupN499CY/45I+oo2UF/upo70hdL4t0Jb/cz/jbnJxKdvO6QWy3nsn0Q1kty0z3H4GlHq+3nvhkkfY9jeROTJbvDtGMLKVQlI0XP/1f0vOF2o6a5Jm8a2sCV6ZxSxWHy/vz5fs6licY1jOz49j9qTf3NV1NwZjAlfFv+mY5YSsLWSfGm/zlS33Kt53ybjWBK5Jv3ZT96OZsP++h9RnNbVoSO9TZ94l+WPzJCdyW1JfqevYhf2OJJ4n694j/+AXjfMYAodaV37pv7OWpu8vab98Ra28VezZUOP3G02bjbrPxZsfreSYVnUqW4XU9Ef93S9kEHNuYGYf1dXw1iM/YL+KzcX5eYzK28L+e7L/bKYPXnH7afEty70hvXte3fGVMaSZfOq5PZuJaz48aVYpjjud1/vJbjKFbRV9lHMMkUYbO1+xBn0eyyjgQe2GYUhH/U6/JWTl5O/Xi6OZ15CTuDluy1zoy/XrYeK/36slkzM8B+h8QCxFz+WXyT6J+i+2gezF/ex7LwBvzwzpYFub1eF5tLIMyNxpFj0fgZvXGTvIa/TY0lmxDUbuXcpLrxQGuPBQEcgpgm7rrfYOH9Tt4EmbYYfuqBNv2dnAqe2fEJmFmAlD6lry+YnvkNcgnIrTcunWtp7Gu9x8sa+vqX2VjMgaQ/fzEcNR1GKv0YTIPbk9CyvXhKN9ThJJuygsr1L8fDRyE/7nqDkR9f5C+BDirfIeZ5YXYfeakvkRz4YDvYevIqbg9bIS+RPPCP/4Xz1X3/JWqjfnJCVwiA7aD7sX87XksA2/MD+tgWZjX43nVagKXOsL6Tf0F63r/wbK2LpYN9SQr1L87wi7HW7Yk/ZE2eZtaXoh3fSZvPeQkrmPkzbglbJi+BHA11mHs3/+sP+o5xvzkTcyIiIiIiIiIiIio13M2nMY55Tv172/Fv7NOFLU5eSt9I9a5V6xTZLix2V/+/Q/9L+vgBC4RERERERERERH1epVnv8Z09x5kVh/GrcffRUF9pf5M2xqVb3Fn+f/Dki8+xNNVTjz5xSH9GevgBC4RERERmffaE5h9fxpW7tQfExERERFZyN6vqrDiH4exvxNH0sojcVfXfIxfnforvvrunL7UOjiBS0RERETmfViAvC39+CYgRERERETnGSdwiYiIiIiIiIiIiCyKE7hEREREREREREREFsUJXCIiIiIiIiIiIiKL4gQuERERERERERERkUVxApeIiIiIiIiIiIjIojiBS0RERERERERERGRRnMAlIiIiIiIiIiIisihO4BIRERERERERERFZFCdwiYiIiIiIiIiIiCyKE7hEREREREREREREFsUJXCIiIiIiIiIiIiKL4gQuERERERERERERkUVxApeIiIiIiIiIiIjIojiBS0RERERERERERGRRnMAlIiIiIiIiIiIisihO4BIRERERERERERFZFCdwiYiIiIiIiIiIiCyKE7hEREREREREREREFsUJXCIiIiIiIiIiIiKL4gQuERERERERERERkUVxApeIiIiIiIiIiIjIojiBS0RERERERERERGRRnMAlIiIiIiIiIiIisihO4BIRERERERERERFZFCdwiYiIiIiIiIiIiCyKE7hEREREREREREREFjVAJEX+4f78C/kPEREREREREREREfWwmMsvE/8H/v/ATzBHhmMMNQAAAABJRU5ErkJggg==;" vertex="1" parent="1">
          <mxGeometry x="120.00000000000001" y="400" width="1422" height="289.1" as="geometry" />
        </mxCell>
      </root>
    </mxGraphModel>
  </diagram>
</mxfile>
